<svg width="1728" height="1122" viewBox="0 0 1728 1122" fill="none" xmlns="http://www.w3.org/2000/svg">
<g clip-path="url(#clip0_1903_3975)">
<rect width="1728" height="1122" fill="#F5F5F5"/>
<path d="M1584.2 -3.1672C1465.15 -146.195 1305.35 -249.791 1126.39 -299.948C947.44 -350.106 757.966 -344.407 583.588 -283.622C409.21 -222.837 258.338 -109.897 151.37 39.9291C44.4009 189.755 -13.5056 369.241 -14.5213 554.121C-15.5371 739.002 40.3868 920.361 145.69 1073.68C250.993 1227 400.597 1344.88 574.275 1411.39C747.954 1477.9 937.331 1489.83 1116.8 1445.57C1296.28 1401.31 1457.19 1302.99 1577.79 1163.91L1291.76 916.325C1221.35 997.526 1127.4 1054.93 1022.62 1080.77C917.841 1106.61 807.279 1099.64 705.881 1060.81C604.484 1021.98 517.142 953.158 455.663 863.647C394.185 774.137 361.535 668.255 362.128 560.318C362.721 452.38 396.528 347.592 458.979 260.121C521.43 172.649 609.512 106.712 711.318 71.224C813.124 35.7362 923.743 32.409 1028.22 61.6923C1132.7 90.9756 1226 151.457 1295.5 234.96L1584.2 -3.1672Z" fill="#3B7AAF"/>
</g>
<defs>
<clipPath id="clip0_1903_3975">
<rect width="1728" height="1122" fill="white"/>
</clipPath>
</defs>
</svg>
