<svg width="2733" height="1927" viewBox="0 0 2733 1927" fill="none" xmlns="http://www.w3.org/2000/svg">
<g filter="url(#filter0_f_1843_4469)">
<path d="M1272.48 552.435C1194.8 459.112 1090.53 391.518 973.764 358.79C856.999 326.063 733.37 329.782 619.591 369.443C505.812 409.104 407.371 482.796 337.575 580.555C267.78 678.314 229.997 795.426 229.334 916.058C228.671 1036.69 265.161 1155.02 333.869 1255.06C402.578 1355.1 500.192 1432.02 613.515 1475.41C726.837 1518.81 850.403 1526.6 967.507 1497.72C1084.61 1468.84 1189.6 1404.68 1268.29 1313.93L1081.66 1152.39C1035.72 1205.37 974.422 1242.83 906.054 1259.69C837.686 1276.55 765.546 1272 699.385 1246.66C633.225 1221.33 576.236 1176.42 536.122 1118.02C496.009 1059.61 474.705 990.528 475.092 920.101C475.479 849.673 497.538 781.301 538.286 724.227C579.034 667.153 636.506 624.13 702.933 600.975C769.36 577.819 841.537 575.648 909.707 594.755C977.877 613.862 1038.75 653.325 1084.1 707.81L1272.48 552.435Z" fill="#3B7AAF"/>
<path d="M1281.38 637.07C1222.16 726.789 1188.14 830.928 1182.96 938.333C1177.77 1045.74 1201.62 1152.36 1251.95 1246.78C1302.28 1341.2 1377.19 1419.87 1468.66 1474.34C1560.13 1528.82 1664.71 1557.06 1771.2 1556.04C1877.7 1555.02 1982.09 1524.77 2073.2 1468.54C2164.31 1412.31 2238.7 1332.22 2288.41 1236.84C2338.12 1141.46 2361.27 1034.38 2355.39 927.083C2349.5 819.785 2314.81 716.305 2255.01 627.727L2052.86 767.468C2087.77 819.182 2108.03 879.596 2111.46 942.239C2114.9 1004.88 2101.38 1067.39 2072.36 1123.08C2043.34 1178.77 1999.9 1225.53 1946.71 1258.36C1893.52 1291.18 1832.57 1308.84 1770.4 1309.44C1708.23 1310.03 1647.17 1293.55 1593.77 1261.74C1540.37 1229.94 1496.63 1184.01 1467.25 1128.89C1437.87 1073.76 1423.94 1011.51 1426.97 948.807C1430 886.102 1449.86 825.303 1484.43 772.922L1281.38 637.07Z" fill="#3B7AAF"/>
</g>
<defs>
<filter id="filter0_f_1843_4469" x="209.725" y="317.103" width="2166.16" height="1258.56" filterUnits="userSpaceOnUse" color-interpolation-filters="sRGB">
<feFlood flood-opacity="0" result="BackgroundImageFix"/>
<feBlend mode="normal" in="SourceGraphic" in2="BackgroundImageFix" result="shape"/>
<feGaussianBlur stdDeviation="9.8" result="effect1_foregroundBlur_1843_4469"/>
</filter>
</defs>
</svg>
