<svg width="78" height="86" viewBox="0 0 78 86" fill="none" xmlns="http://www.w3.org/2000/svg">
<path fill-rule="evenodd" clip-rule="evenodd" d="M22.4101 20.0301V20.3354C22.4101 20.4209 22.441 20.503 22.4958 20.5635C22.5507 20.6239 22.6251 20.6579 22.7026 20.6579C22.7802 20.6579 22.8546 20.6239 22.9095 20.5635C22.9643 20.503 22.9951 20.4209 22.9951 20.3354V20.0129C22.9911 19.9281 22.9577 19.8483 22.9019 19.7898C22.846 19.7314 22.7719 19.6989 22.6948 19.699C22.6563 19.6996 22.6182 19.7086 22.5828 19.7257C22.5475 19.7427 22.5156 19.7674 22.4891 19.7983C22.4625 19.8291 22.4419 19.8656 22.4283 19.9054C22.4147 19.9452 22.4086 19.9876 22.4101 20.0301ZM22.297 19.1314C22.726 19.0196 23.077 18.7014 22.453 18.7444C22.2985 18.7682 22.1459 18.8056 21.9967 18.8562C21.4117 19.1228 21.9187 19.2303 22.297 19.1314ZM58.0795 22.1242C57.8998 22.54 57.5992 22.8775 57.2254 23.0831C57.2109 23.0888 57.1987 23.0999 57.1908 23.1144C57.1829 23.129 57.1798 23.1462 57.1821 23.1629C57.1844 23.1797 57.192 23.1951 57.2034 23.2064C57.2149 23.2177 57.2296 23.2243 57.2449 23.225C57.3712 23.2495 57.5009 23.2394 57.6227 23.1954C57.7446 23.1515 57.8547 23.0751 57.9434 22.9731C58.032 22.8711 58.0965 22.7465 58.1312 22.6104C58.1658 22.4744 58.1695 22.331 58.1419 22.193C58.1419 22.1748 58.1354 22.1573 58.1237 22.1444C58.112 22.1315 58.0961 22.1242 58.0795 22.1242ZM56.5273 18.7143C56.4524 18.6932 56.3729 18.7051 56.3059 18.7477C56.2388 18.7903 56.1895 18.8601 56.1685 18.9422C56.1332 19.0822 56.1266 19.2291 56.149 19.3722C56.149 19.4577 56.1799 19.5398 56.2347 19.6003C56.2896 19.6607 56.364 19.6947 56.4415 19.6947C56.5191 19.6947 56.5935 19.6607 56.6484 19.6003C56.7032 19.5398 56.734 19.4577 56.734 19.3722C56.734 19.0626 56.7964 18.796 56.5273 18.7143ZM43.1152 60.9618C42.7993 60.7855 36.7582 61.2198 36.6061 61.968C36.5749 62.1314 36.6724 62.7592 36.844 62.8624C37.1833 63.0602 42.9943 62.699 43.3141 62.0024C43.4051 61.833 43.4351 61.6321 43.3983 61.4395C43.3614 61.2468 43.2604 61.0764 43.1152 60.9618ZM36.9181 62.6818C36.7979 62.4735 36.733 62.2321 36.7309 61.9852C36.8089 61.5982 40.0264 61.3875 40.3813 61.3617C40.3729 61.7092 40.454 62.0521 40.6153 62.3507C40.1707 62.4281 37.1287 62.8065 36.9181 62.6947V62.6818ZM43.0294 61.8218C42.7213 62.0626 41.1574 62.2819 40.783 62.3335C40.8158 61.9931 40.7503 61.65 40.5958 61.3531C41.0599 61.3187 42.5458 61.2284 42.9865 61.2714C43.1035 61.366 43.1074 61.6584 43.0294 61.8304V61.8218ZM32.866 61.9809C32.8555 61.9737 32.8433 61.9698 32.8309 61.9698C32.8185 61.9698 32.8064 61.9737 32.7958 61.9809C32.7958 61.9379 25.3468 66.5647 25.1206 67.0549C25.1106 67.0784 25.1053 67.1041 25.1053 67.1302C25.1053 67.1562 25.1106 67.1819 25.1206 67.2054C25.3585 67.9579 33.1312 75.7065 33.4549 75.8828C33.5485 75.9344 33.6655 75.8441 34.0321 75.6291C34.8121 75.169 41.4694 71.2474 42.1558 70.6153C42.3469 70.4003 42.4639 68.4653 42.3586 68.246C42.2533 68.0267 32.866 62.0239 32.866 61.9809ZM33.5407 75.5259C32.71 74.7992 26.1307 68.2632 25.4014 67.1538C26.08 66.4486 32.6437 62.2561 32.8426 62.1271C33.8488 62.8022 41.0911 67.6612 42.0193 68.3492C41.5288 68.5055 41.0621 68.7418 40.6348 69.0501C40.4125 69.2866 40.9663 69.7252 41.7346 70.5465C40.5607 71.3807 34.738 74.8207 33.5407 75.5259ZM41.9569 70.3014C41.9179 70.2584 40.978 69.2479 40.9351 69.2092C41.314 68.9485 41.7045 68.7088 42.1051 68.4911C42.1064 69.0987 42.0541 69.705 41.9491 70.3014H41.9569Z" fill="black"/>
<path fill-rule="evenodd" clip-rule="evenodd" d="M38.7155 69.5097C38.4425 69.6387 35.1119 70.8556 34.172 71.277C33.8957 71.4288 33.5947 71.518 33.2867 71.5393C33.2321 71.5393 33.548 70.8685 35.9387 68.8131C36.1883 68.5981 36.668 68.1896 36.7187 67.8542C36.9488 66.7448 34.2227 68.4046 31.7852 69.4538C31.5331 69.6031 31.258 69.6993 30.974 69.7376C30.9467 69.5613 31.4966 69.0066 31.5317 68.9636C32.9864 67.192 34.8311 66.461 34.7063 65.8074C34.5152 64.784 31.13 66.7749 30.4163 67.0974C29.8157 67.3769 28.8563 67.7123 28.9148 67.7123C28.7861 67.7682 28.9148 67.8671 28.9382 67.8542C28.9616 67.8413 30.1979 67.4242 30.4982 67.278C30.9467 67.0888 33.9458 65.4935 34.445 65.8676C34.6439 66.0224 32.5223 67.2823 31.325 68.74C31.1144 68.9894 30.545 69.4968 30.7205 69.9096C30.7527 69.9734 30.8014 70.0251 30.8605 70.058C30.9196 70.091 30.9863 70.1037 31.052 70.0945C31.6331 70.0945 35.5955 67.9058 36.4106 67.837C36.2235 68.1092 35.9999 68.3484 35.7476 68.5465C35.1665 69.0539 33.4817 70.5675 33.0917 71.2641C32.8889 71.6253 33.0566 71.8403 33.3218 71.8446C33.6728 71.8446 34.1018 71.5823 35.1587 71.1437C38.7428 69.6215 38.8559 69.6903 38.7974 69.5484C38.7944 69.5398 38.7898 69.5321 38.7841 69.5255C38.7783 69.5189 38.7714 69.5137 38.7638 69.5101C38.7562 69.5065 38.748 69.5046 38.7397 69.5045C38.7314 69.5044 38.7231 69.5062 38.7155 69.5097Z" fill="black"/>
<path fill-rule="evenodd" clip-rule="evenodd" d="M76.0504 53.1141C75.9997 48.6163 75.6331 39.4358 74.8258 34.9853C74.4007 32.6246 73.4803 29.3953 71.7682 27.8344C71.0428 27.1765 69.9742 26.5444 68.0359 25.3619C68.0593 25.306 64.9744 23.93 64.8301 24.3858C64.7103 23.6016 64.5422 22.8272 64.327 22.0681C64.6156 21.9649 64.4869 21.0361 64.6078 20.5115C64.7287 19.9869 65.185 19.6128 65.419 19.1828C65.9455 18.2239 66.0352 16.5512 65.9377 15.4375C65.8441 14.4012 64.4713 12.0878 63.5665 11.7094C62.6617 11.331 61.7335 11.3439 60.778 11.1332C59.998 10.9569 59.4208 10.4796 58.5472 10.3592C57.6736 10.2388 57.151 10.7892 56.4022 10.7892C55.6534 10.7892 54.811 10.1485 54.0271 10.0969C53.6013 10.0896 53.1874 10.253 52.8625 10.5567C52.5376 10.8603 52.3237 11.2837 52.2604 11.7481C52.1658 12.4403 52.2403 13.1479 52.4761 13.7979C52.7119 14.4478 53.1005 15.0168 53.602 15.4461C54.2127 15.872 54.8988 16.1491 55.6144 16.2588C55.5676 18.4561 55.7782 17.867 55.5442 18.0605C55.3102 18.254 55.3843 19.6085 55.4662 19.9826C55.5013 20.1331 55.5364 20.189 55.7041 20.2492C55.6105 20.6792 54.9514 21.608 55.5442 21.8359C55.6222 21.866 55.9342 21.9262 55.9654 21.9391C56.0454 22.3469 56.163 22.7446 56.3164 23.1259C56.4677 23.5093 56.6887 23.8544 56.9657 24.1399C57.2428 24.4254 57.57 24.6452 57.9271 24.7857C58.4887 25.0265 58.9333 25.091 59.2609 25.2157C59.3061 25.3935 59.3297 25.5772 59.3311 25.7618C57.9384 26.1654 56.6263 26.8523 55.4623 27.7871C53.3524 29.6748 50.3533 37.5051 49.5694 38.3651C49.2652 38.6962 42.1009 40.227 41.044 41.0182C40.8373 41.173 40.8295 41.3063 40.8568 41.5815C40.5994 41.6331 39.5152 41.8567 39.3943 42.1104C39.3587 42.2947 39.3681 42.4862 39.4216 42.6651C38.4566 42.4664 37.4829 42.3229 36.5044 42.2351C36.3254 42.2397 36.1492 42.2857 35.9873 42.3702C35.8254 42.4546 35.6814 42.5756 35.5645 42.7253C35.2369 43.1553 35.5021 43.0822 35.155 43.022C34.4179 42.9059 31.7776 43.882 31.4461 44.054C31.4461 43.8992 31.4461 43.7917 31.2979 43.7057C30.8627 43.5666 30.4079 43.5171 29.9563 43.5595C29.6833 43.7616 30.7363 43.6928 31.1731 43.9422C31.1731 44.2733 31.2121 47.6703 31.1731 48.3368C31.1731 48.4572 31.1731 48.44 31.0912 48.4529C30.7012 48.5131 30.1396 48.4529 29.968 48.5905C30.0304 47.0941 29.968 43.4305 29.7808 43.2155C29.6677 43.0865 27.5851 42.8113 25.3192 42.5103C25.3273 40.7028 25.2361 38.8963 25.0462 37.1009C24.6289 33.1105 23.7553 28.4063 21.0253 26.0198C21.1835 26.091 21.3576 26.1075 21.5245 26.0671C21.7474 25.9696 21.9873 25.9284 22.2265 25.9467C22.6165 26.0628 22.6672 26.3767 23.6422 25.6543C23.7046 25.607 23.8684 25.6199 23.9971 25.478C24.4378 24.9921 24.2155 24.3342 24.2155 23.844C24.2801 23.5108 24.3011 23.169 24.2779 22.8292C24.266 22.7786 24.2436 22.7316 24.2125 22.6921C24.1813 22.6526 24.1424 22.6215 24.0985 22.6013C24.0985 22.4594 24.235 22.2057 24.04 21.9305C24.3208 21.7671 24.625 21.5779 24.469 21.2425C24.171 20.717 23.9252 20.1576 23.7358 19.5741C23.6149 19.0753 23.7787 18.4389 23.7709 17.9014C23.7709 17.5316 23.806 17.0887 23.7709 16.6845C24.0718 16.4529 24.3016 16.126 24.43 15.7471C24.4585 15.5939 24.4524 15.4354 24.4123 15.2855C24.3722 15.1355 24.2992 14.9987 24.1999 14.8871C24.0712 14.7968 24.0439 14.8871 24.0478 14.6205C24.062 14.527 24.0581 14.4312 24.0366 14.3393C24.0151 14.2475 23.9765 14.1617 23.923 14.0873C23.7592 13.911 23.3848 13.7175 23.2678 13.5369C23.0689 13.2144 22.9519 12.8919 22.5775 12.7629C22.3123 12.6683 22.0627 12.8532 21.8833 12.7887C21.6376 12.7027 21.3841 12.4103 21.1033 12.7199C21.0407 12.7574 20.9719 12.7809 20.9009 12.789C20.83 12.7971 20.7583 12.7897 20.6899 12.7672C20.4559 12.5479 20.3974 12.1695 19.9996 12.0878C19.7734 12.0448 19.3288 12.1652 19.1572 12.0878C18.8761 11.8597 18.566 11.6785 18.2368 11.5503C17.8689 11.5117 17.4976 11.5466 17.1409 11.6535C16.8913 11.7094 16.5715 11.6793 16.3102 11.7223C15.7681 11.8169 15.6121 12.3329 15.2533 12.5823C14.8945 12.8317 14.29 12.836 13.9468 13.395C13.6582 13.868 13.7206 14.3797 13.6075 14.8527C13.5607 15.0548 13.3111 15.2827 13.2175 15.4891C12.9991 15.9664 13.1669 16.448 13.1629 16.8608C13.159 17.2736 12.8977 17.652 12.9718 18.1508C13.0321 18.3999 13.131 18.6356 13.2643 18.8474C13.266 18.9171 13.2581 18.9867 13.2409 19.0538C13.122 19.3922 13.0975 19.7621 13.1707 20.1159C13.2346 20.4551 13.3832 20.7679 13.5997 21.0189C13.8727 21.2812 14.0131 21.2124 14.212 21.5865C14.2957 21.7843 14.4215 21.9569 14.5786 22.0896C14.8672 22.3046 15.2221 22.1197 15.3938 22.2143C15.5005 22.2765 15.6169 22.3159 15.7369 22.3304C15.6409 22.3839 15.558 22.4621 15.4951 22.5583C13.3735 22.855 10.5733 24.5621 8.86515 26.897C8.19045 27.8559 7.05555 29.2405 6.63045 30.3499C4.34505 36.0431 5.46045 44.9699 4.54005 47.7262L2.26245 54.2751C2.15325 54.589 1.87245 56.1499 1.97385 56.6874C2.13765 57.4872 2.89815 56.4853 3.36225 55.9177C3.07365 57.0486 3.07755 57.3453 2.92545 61.7958C2.87865 63.189 2.83575 64.7069 2.81625 65.984C2.81513 65.9932 2.81581 66.0025 2.81825 66.0113C2.82068 66.0202 2.82481 66.0284 2.83036 66.0353C2.83591 66.0422 2.84275 66.0478 2.8504 66.0515C2.85806 66.0553 2.86637 66.0572 2.87475 66.0571C2.98395 66.0571 2.91375 66.1947 3.07365 62.6429C3.18675 60.1446 3.31545 57.814 3.32715 57.6248C3.38488 56.8898 3.53179 56.1667 3.76395 55.4748C4.8531 54.5777 6.07871 53.902 7.38315 53.4796C8.83492 53.0514 10.368 53.0947 11.7979 53.6043C12.188 53.7462 13.2371 54.0343 13.6115 53.8408C14.3914 53.4108 16.4 51.9875 16.7315 51.1232C16.8952 50.6932 17.0279 50.3449 17.1565 50.0224C17.7533 50.0826 18.4864 50.2503 19.1377 50.2589C19.867 50.2589 20.335 50.1299 21.1423 49.343C24.1102 49.4161 27.3823 49.3172 28.9423 49.2527C29.9836 49.6827 33.1816 50.9426 33.9577 51.7897C34.2619 52.1165 34.4413 53.0281 34.5505 54.0429C34.6943 55.2559 34.7322 56.4813 34.6636 57.7022C32.5264 58.1537 29.8042 58.8675 27.6982 59.4437C27.5803 59.4075 27.4571 59.3973 27.3355 59.4136C26.7778 59.4781 27.0391 59.7275 26.8558 59.104C26.8646 59.1063 26.8738 59.1061 26.8825 59.1035C26.8912 59.101 26.8992 59.0961 26.9058 59.0892C26.9123 59.0824 26.9173 59.0739 26.9201 59.0645C26.923 59.0551 26.9237 59.045 26.9221 59.0352C26.9164 58.2087 26.8288 57.3854 26.6608 56.5799C26.6335 56.4595 26.4424 56.3993 26.3254 56.3606C25.0618 55.9564 20.1829 55.4146 19.1104 55.7199C18.4123 55.922 13.5802 58.674 13.3618 59.2588C13.1434 59.8436 12.5506 63.361 12.4414 64.0103C9.91425 64.823 7.92135 65.4938 6.94635 65.8593C6.93827 65.8622 6.93081 65.8669 6.92442 65.873C6.91803 65.8792 6.91286 65.8867 6.9092 65.8952C6.90555 65.9036 6.90351 65.9128 6.90319 65.9222C6.90287 65.9315 6.90428 65.9409 6.90735 65.9496C6.95415 66.1087 8.23335 65.3777 21.3373 61.5808C21.469 61.9515 21.6378 62.3048 21.8404 62.6343C21.4504 62.7375 21.0097 62.9267 20.881 63.3223C20.8582 63.4058 20.8544 63.4943 20.87 63.5798C20.8857 63.6654 20.9203 63.7453 20.9707 63.8125C21.2907 64.2075 21.7172 64.4789 22.1875 64.5865C23.0122 64.8144 23.8691 64.8641 24.7108 64.7327C25.5191 64.655 26.3156 64.4672 27.082 64.1737C27.9166 63.7867 27.862 63.2105 27.5422 62.9482C27.2127 62.7345 26.8506 62.5888 26.4736 62.5182C26.8285 61.8087 26.497 62.1226 27.0274 61.9807C27.3276 61.9017 27.6018 61.732 27.8191 61.4905C28.1623 61.1035 28.3924 60.1489 28.0648 59.6888C29.7106 59.2588 36.3289 57.4528 37.9474 57.5861C40.8841 57.8226 62.2366 67.5019 67.291 69.3681C67.299 69.3709 67.3074 69.372 67.3157 69.3713C67.324 69.3705 67.3321 69.368 67.3395 69.3638C67.3469 69.3596 67.3535 69.3538 67.3589 69.3468C67.3643 69.3398 67.3684 69.3317 67.371 69.323C67.3736 69.3142 67.3745 69.305 67.3739 69.2958C67.3732 69.2866 67.3709 69.2777 67.3671 69.2695C67.3633 69.2613 67.358 69.2541 67.3517 69.2481C67.3453 69.2422 67.338 69.2376 67.33 69.2348C66.0079 68.7274 63.0595 67.4331 59.53 65.8765C59.7016 65.4207 60.154 63.9501 60.505 63.4427C60.6493 63.2363 60.6415 63.2191 61.9285 63.3008C65.302 63.5158 68.2738 63.4169 71.5108 62.2774C73.4881 61.5765 74.4592 59.9597 75.0208 57.7968C75.1339 57.8355 75.442 57.9473 75.5512 57.9731C75.5824 57.9814 75.6149 57.9815 75.6461 57.9733C75.6773 57.965 75.7063 57.9488 75.7306 57.9258C76.1167 57.4915 76.0504 53.9612 76.0504 53.1141ZM22.7062 23.5473C22.6007 23.5897 22.4868 23.6001 22.3763 23.5774C22.2659 23.5547 22.163 23.4998 22.0783 23.4183C21.9942 23.344 21.9283 23.2476 21.8867 23.1379C21.8451 23.0282 21.8292 22.9088 21.8404 22.7905C21.8353 22.7728 21.8367 22.7536 21.8444 22.7371C21.852 22.7206 21.8654 22.7081 21.8814 22.7024C21.8974 22.6967 21.9149 22.6982 21.9299 22.7067C21.9448 22.7151 21.9562 22.7298 21.9613 22.7475C22.1539 23.0529 22.4258 23.2867 22.7413 23.4183C22.7514 23.4275 22.7588 23.4397 22.7625 23.4534C22.7663 23.4672 22.7663 23.4819 22.7626 23.4956C22.7588 23.5094 22.7515 23.5217 22.7415 23.5308C22.7315 23.54 22.7192 23.5458 22.7062 23.5473ZM19.0441 19.7805C19.0575 19.6542 19.1035 19.5348 19.1767 19.4365C19.2625 19.3419 19.5238 19.4021 19.7071 19.2645C19.8442 19.1451 19.9483 18.9857 20.0074 18.8044C20.2258 18.3271 20.573 18.6969 21.0565 17.91C21.18 17.6887 21.2758 17.4501 21.3412 17.2005C21.6142 17.0586 21.9691 17.265 22.3123 16.6415C22.4254 16.4308 22.4995 16.2115 22.7023 16.1513C22.8544 16.3319 23.0065 17.0113 23.6227 16.749C23.6227 16.9812 23.5759 18.1551 23.5642 18.2497C23.5137 18.5331 23.4863 18.8209 23.4823 19.1097C23.4823 19.9697 23.8411 20.4427 24.2389 21.3414C24.3013 21.4833 23.9737 21.6209 23.8099 21.7198C23.5789 21.626 23.3397 21.5583 23.0962 21.5177C22.3396 21.3156 21.7351 21.7499 21.0838 21.9477C20.9735 21.9485 20.8634 21.934 20.7562 21.9047C20.5105 21.8789 20.2531 22.1541 19.906 22.2057C19.8156 22.2253 19.7218 22.2145 19.637 22.1746C19.5521 22.1347 19.4801 22.0677 19.4302 21.9821C19.3882 21.8246 19.3582 21.6635 19.3405 21.5005C19.3054 21.3457 19.2626 21.1909 19.2313 21.0404C19.1689 20.7308 19.3522 20.6104 19.1377 20.1804C18.9895 19.888 18.9935 20.017 19.0441 19.7805ZM19.1923 28.5525C19.455 28.0031 19.6691 27.4271 19.8319 26.8325C20.0503 28.3289 20.1673 29.0857 20.2219 29.4641C19.9372 29.2018 19.9099 29.1029 19.1923 28.5353V28.5525ZM20.3623 30.3026C20.5534 31.5926 20.5105 31.3002 20.5456 31.5668C20.4525 31.3733 20.3386 31.1928 20.2064 31.0293C20.25 30.7453 20.2696 30.4574 20.2648 30.1693L20.3623 30.3026ZM18.9505 31.0766C18.7176 30.8096 18.505 30.522 18.3148 30.2166C18.5077 29.7194 18.7251 29.2342 18.9662 28.7632C19.7851 29.4555 19.7227 29.4469 19.9255 29.7264C19.9553 30.0926 19.9553 30.461 19.9255 30.8272L18.9505 31.0766ZM19.0012 31.3561C19.4653 32.4956 19.6525 34.3661 19.75 35.6131C19.2632 34.0425 18.6086 32.5412 17.8 31.1411C17.9582 30.9029 18.099 30.6513 18.2212 30.3886C18.3819 30.7185 18.5741 31.0284 18.7945 31.3131C18.8227 31.3326 18.8545 31.3451 18.8875 31.3495C18.9205 31.354 18.954 31.3504 18.9856 31.3389L19.0012 31.3561ZM16.6846 22.1541C16.7164 22.165 16.7491 22.1722 16.7821 22.1756C16.873 22.1711 16.96 22.1343 17.0303 22.0708C17.1006 22.0072 17.1504 21.9203 17.1721 21.823C17.2345 21.78 17.2813 21.7327 17.2774 21.651C17.2735 21.5693 16.4351 20.3051 17.5036 19.6558C17.5979 19.6445 17.6926 19.6715 17.7701 19.7316C17.8477 19.7918 17.9027 19.881 17.9248 19.9826C17.9753 20.212 18.0819 20.4217 18.2329 20.5889C18.2448 20.8638 18.2774 21.137 18.3304 21.4059C18.3616 21.565 18.2524 21.7714 18.229 21.9907C18.1744 22.4207 18.5527 22.8937 18.6892 23.2807C18.8725 23.801 18.7477 24.36 19.1845 24.8201C19.6213 25.2802 19.5394 24.9018 19.6915 25.9338C19.5096 26.7448 19.2589 27.5352 18.9427 28.2945C18.502 27.6065 16.2712 23.5903 15.8227 22.6744C15.9904 22.5626 16.5131 22.2358 16.6691 22.1369L16.6846 22.1541ZM15.5146 22.726C15.7993 23.457 18.6346 28.4106 18.6346 28.4536C18.4981 28.9309 17.7142 30.9089 17.3438 31.1239C16.5286 30.4832 14.294 23.7451 14.1341 23.1345C14.574 22.9267 15.0369 22.7836 15.5107 22.7088L15.5146 22.726ZM19.5394 41.7105C19.1104 41.56 17.7259 36.3785 16.4896 33.5104C15.7486 31.7904 14.294 28.9481 12.7067 28.1913C10.9907 27.3786 7.80045 29.3265 7.46115 31.8549C7.25397 33.5224 7.37637 35.2196 7.81995 36.83C9.66075 42.9661 12.1529 47.8595 17.4763 49.2613C17.6011 48.9861 17.1604 49.214 20.6626 49.3172C20.491 49.4644 20.3083 49.5953 20.1166 49.7085C19.4615 50.0998 18.2173 49.7859 17.2969 49.6741L17.4139 49.3946C11.9306 48.0444 9.36435 42.9446 7.52745 36.9246C7.06354 35.2656 6.9305 33.5157 7.13745 31.7947C7.48845 29.0599 10.7917 27.0991 12.6208 27.7785C13.0872 27.9701 13.5142 28.2625 13.8766 28.6385C13.7027 26.9154 13.6597 25.1794 13.7479 23.4484C13.8196 23.3782 13.8966 23.3149 13.978 23.2592C14.3134 24.5492 16.2244 30.7154 17.1955 31.3991C17.2571 31.4392 17.3292 31.4552 17.4001 31.4442C17.4709 31.4333 17.5363 31.3962 17.5855 31.3389C18.463 33.003 19.282 34.7058 19.6096 36.4989C19.795 37.4885 19.8423 38.5035 19.75 39.5089C19.1962 36.9805 17.6635 33.3255 15.9202 31.5754C17.7025 34.9681 19.0012 40.3947 19.5823 41.4654C19.8148 41.5361 20.0522 41.585 20.2921 41.6116C20.1907 39.0316 20.1127 33.6523 19.1221 31.3174C19.243 31.3174 20.0971 31.1153 20.0971 31.1153C20.2512 31.3192 20.3821 31.543 20.4871 31.7818C20.647 32.1215 20.5924 31.8635 20.8342 33.6695C22.0042 42.0072 21.9379 41.9642 22.09 42.0545C21.3256 41.947 19.9801 41.8567 19.5394 41.7105ZM22.129 39.9905C20.608 30.4703 20.5924 30.2037 19.9528 26.2305C20.0035 26.0413 20.0425 25.8865 20.0698 25.7747C20.3116 26.1144 21.6298 27.9763 21.7741 28.3848C21.5596 28.5955 20.7874 28.9567 21.0215 29.2448C21.1267 29.3781 21.9964 30.208 22.2694 30.509C22.4176 31.2013 22.1836 38.7865 22.129 39.9905ZM12.5974 63.9544C12.7066 63.4083 13.4203 59.8565 13.6192 59.3577C13.7635 58.9879 18.4669 56.2359 19.2079 56.0295C20.2765 55.7199 26.0953 56.3563 26.5009 56.6444C26.6841 57.3945 26.7913 58.1646 26.8207 58.9406C26.1655 58.0806 21.0955 58.3085 21.0409 59.5211C21.0399 59.5609 21.0475 59.6004 21.0631 59.6363C21.0787 59.6722 21.1018 59.7035 21.1306 59.7275C21.1281 60.2473 21.1818 60.7655 21.2905 61.2712C18.2953 62.1613 15.3001 63.0901 12.5974 63.9544ZM27.4681 63.2836C27.667 63.9931 25.3309 64.2984 24.6562 64.3844C23.8551 64.5102 23.0395 64.465 22.2538 64.2511C21.9106 64.1479 21.275 63.8727 21.154 63.5287C21.0955 63.3653 21.2866 63.2105 21.427 63.1288C21.6049 63.0264 21.7935 62.9484 21.9886 62.8966C22.2011 63.2194 22.486 63.4758 22.8154 63.6405C23.2054 63.8297 24.8707 63.6964 25.4479 63.5588C25.7014 63.4986 25.9705 63.4169 26.3527 62.7418C26.5867 62.7805 27.4018 63.0471 27.4681 63.2836ZM25.6039 63.1331C25.3114 63.3266 23.2444 63.4814 22.9285 63.3395C21.8833 62.8794 21.3139 61.082 21.271 59.8135C22.1207 60.0196 22.9928 60.0905 23.8606 60.0242C24.5119 59.9296 26.0524 59.6372 26.6179 59.3233C26.9572 60.7337 26.2396 62.7246 25.6039 63.1331ZM27.784 60.9143C27.6785 61.1446 27.5302 61.3478 27.3488 61.5107C27.1674 61.6737 26.9569 61.7928 26.731 61.8603C26.9351 61.2571 27.0317 60.6162 27.0157 59.9726C27.0465 59.9015 27.0912 59.8388 27.1466 59.789C27.202 59.7393 27.2667 59.7037 27.3361 59.6847C27.4054 59.6658 27.4777 59.6641 27.5478 59.6797C27.6178 59.6952 27.6839 59.7277 27.7411 59.7748C28.0336 59.9855 27.9049 60.5488 27.784 60.9143ZM67.954 25.4866C70.5904 27.0905 71.7604 27.7613 72.6028 29.1674C72.0729 28.665 71.3985 28.3862 70.6996 28.3805C68.1997 28.2859 66.9712 32.3666 66.3316 35.0068C65.2708 39.41 65.9221 44.9828 65.8636 45.7998C65.1889 46.4921 61.7335 48.4701 60.1891 49.3946C60.4036 48.397 61.168 44.5485 61.6672 43.0306C62.338 40.9924 64.2685 36.2452 64.3972 35.2132C64.4323 34.9079 64.3777 34.8692 63.5587 34.2844C63.8746 34.2844 64.7287 34.1898 64.9939 34.1339C65.107 34.1339 65.1655 34.078 65.2084 33.8157C65.3527 32.9041 65.6335 25.392 65.6569 24.5922C65.6296 24.575 67.6186 25.2759 67.9657 25.4866H67.954ZM64.9471 24.4589C65.1247 24.4448 65.3032 24.4667 65.4736 24.5234C65.2786 27.6409 65.0836 33.1234 64.9003 33.8243C64.6936 33.8673 63.9604 33.9232 63.6757 33.9447C63.0673 33.9834 63.0517 33.9447 62.9893 34.0393C62.9269 34.1339 63.0127 34.2629 63.1258 34.3489C63.3247 34.5037 63.9877 34.9638 64.0813 35.0842C63.9913 35.5962 63.8528 36.0963 63.6679 36.5763C61.4644 43.0263 61.597 41.044 60.115 48.1175C60.2141 44.7291 60.498 41.3504 60.9652 37.9996C61.2772 36.1549 61.6555 34.422 62.9152 30.4746C63.4105 28.9481 64.4362 26.0241 64.4752 26.0413C64.6709 25.5274 64.8325 24.9986 64.9588 24.4589H64.9471ZM58.1728 50.848C58.2469 51.1662 58.2469 51.1232 58.2235 51.1275L58.1026 51.1017C58.1026 51.0587 57.892 46.7415 57.9934 44.957C58.1767 41.7965 58.4107 38.3694 58.6291 35.067C58.7344 33.4674 59.1322 30.0317 59.1205 30.1607L59.5105 29.8425C59.6724 30.1985 59.8561 30.5419 60.0604 30.8702C60.1384 30.9863 60.2437 31.1325 60.3685 31.1454C60.2827 31.9237 58.984 41.5256 58.6018 47.6617C58.3912 51.0028 58.6018 50.2933 58.2937 50.5986C58.2572 50.6258 58.2278 50.6633 58.2086 50.7071C58.1894 50.7509 58.1811 50.7995 58.1845 50.848H58.1728ZM60.4894 31.1497C60.7858 31.1497 61.1056 30.4617 61.4956 30.1693C61.6477 30.3456 62.1079 31.1884 62.4121 31.3002C61.1212 35.2046 59.7406 40.6484 59.7445 49.6354C59.413 49.8332 58.9645 50.117 58.633 50.3277C58.828 46.6684 60.2398 34.6585 60.5011 31.1497H60.4894ZM64.5844 25.3705C64.4596 25.8005 62.6071 30.7326 62.4784 30.9605C62.2774 30.7431 62.0982 30.5023 61.9441 30.2424C61.6165 29.7565 61.5034 29.5974 60.9457 30.2897C61.7725 28.5697 63.3871 26.8239 64.0657 25.9553C64.7131 25.1383 64.6273 25.2071 64.5844 25.3705ZM55.8484 16.3405C56.1394 16.4393 56.4506 16.4393 56.7415 16.3405C56.9642 16.2314 57.2099 16.1927 57.4513 16.2287C57.7922 16.4019 58.1426 16.5513 58.5004 16.6759C58.9431 16.6716 59.3849 16.6328 59.8225 16.5598C60.0231 16.6631 60.193 16.8271 60.3124 17.0326C60.4318 17.2381 60.4959 17.4767 60.4972 17.7208C59.7704 17.8372 59.0687 18.098 58.4263 18.4905C58.3869 18.3493 58.3087 18.2251 58.2025 18.135C58.0963 18.0449 57.9674 17.9933 57.8335 17.9874C57.194 17.9026 56.5481 17.8939 55.9069 17.9616C55.8501 17.4122 55.8305 16.8588 55.8484 16.3061V16.3405ZM55.6963 20.0084C55.5988 19.8192 55.4077 18.3529 55.6027 18.1938C55.6339 18.2368 55.4974 18.1035 56.2384 18.1121C56.7607 18.1303 57.2816 18.182 57.7984 18.2669C58.1494 18.3357 58.2079 18.512 58.1884 18.8861C58.1884 19.5784 58.2079 19.5096 58.1884 19.7246C58.1884 19.7848 58.165 19.9439 58.1221 19.9783C57.3199 20.1384 56.4981 20.1369 55.6963 19.974V20.0084ZM59.2804 24.8545C58.2118 24.5191 57.2329 24.4761 56.5738 22.9797C56.1487 22.0165 56.3827 21.737 55.9966 21.6123C55.8535 21.5935 55.7124 21.5589 55.5754 21.5091C55.5754 21.221 55.903 20.619 55.9654 20.3137C56.6131 20.3991 57.2678 20.3991 57.9154 20.3137C58.3054 20.2492 58.5121 20.1761 58.4497 19.3032V18.6367C59.062 18.4303 60.3607 18.0906 60.5167 18.0433C60.5177 18.2772 60.5465 18.51 60.6025 18.7356C60.6635 18.8775 60.7687 18.9904 60.8989 19.0538C60.9198 19.064 60.9425 19.0688 60.9652 19.0678C60.988 19.0667 61.0103 19.0599 61.0303 19.0478C61.0503 19.0358 61.0675 19.0188 61.0806 18.9982C61.0936 18.9776 61.1022 18.954 61.1056 18.9291C61.1953 18.5292 61.2655 18.1723 61.2928 18.0003C61.2928 18.0949 61.3279 17.6993 61.5853 17.5445C61.9753 17.3209 62.5798 17.8197 62.6227 18.5249C62.6461 18.8689 62.3341 19.4924 62.1001 20.2105C61.9597 20.6405 62.8099 20.8254 63.1063 20.9845C63.2155 21.264 63.1492 21.5779 63.2974 21.7456C63.5199 21.8968 63.7638 22.0058 64.0189 22.0681C64.288 23.0186 64.4837 23.9924 64.6039 24.9792C63.6133 26.1273 63.391 26.4025 63.1258 26.6992C62.0898 27.7846 61.2112 29.0391 60.5206 30.4187C60.2437 28.6256 59.7172 27.0432 59.6587 26.5229C59.6119 26.1187 59.6899 25.4049 59.5183 25.0222C59.4923 24.9767 59.4575 24.938 59.4164 24.909C59.3753 24.88 59.3289 24.8614 59.2804 24.8545ZM59.3935 26.3122C59.5807 27.0776 60.0799 29.563 60.2242 30.5606C59.9863 30.165 59.6938 29.5114 59.6938 29.5114C59.6837 29.4881 59.6689 29.4676 59.6506 29.4514C59.6323 29.4353 59.6109 29.4239 59.5881 29.4181C59.5652 29.4123 59.5414 29.4123 59.5186 29.418C59.4957 29.4237 59.4743 29.4351 59.4559 29.4512L59.1712 29.692C59.2804 28.574 59.3896 27.4345 59.4053 26.3122H59.3935ZM59.2804 25.9295C59.2453 29.0943 58.672 31.9151 58.438 35.067C57.658 45.6622 57.658 45.1419 57.736 48.8915C57.3148 45.5031 56.7259 38.9112 56.4022 35.3379C56.6323 35.1444 57.7438 34.2113 57.8686 33.9275C57.9271 33.7899 57.8686 33.648 57.5878 33.648C57.0997 33.6886 56.6096 33.6886 56.1214 33.648C56.4178 32.315 58.1143 27.4517 58.5667 26.1617C58.7968 26.0886 58.9879 26.0155 59.2804 25.9295ZM41.1493 41.3407C41.7538 40.6398 49.3393 39.0058 49.7527 38.5629C50.3338 37.9179 51.9328 33.9146 53.563 30.8788C54.9475 28.2988 55.7002 27.3442 58.3951 26.2477C57.7477 28.015 56.4841 31.4722 55.9147 33.4846C55.8796 33.6093 55.8289 33.7469 55.9147 33.8286C56.1292 34.0608 57.0262 33.9232 57.541 33.9318C57.1783 34.3317 56.1799 35.1444 56.1799 35.1444C56.1607 35.1601 56.1455 35.181 56.136 35.2052C56.1264 35.2293 56.1227 35.2558 56.1253 35.282C56.2891 37.2772 57.2953 49.1839 57.7321 50.9125L57.0301 50.7147C56.5764 50.4691 56.0836 50.323 55.5793 50.2847C56.4685 45.4085 56.1487 44.0454 56.2579 41.388C56.2579 41.1128 55.2049 35.583 55.1971 35.54C55.1971 35.5218 55.1906 35.5043 55.1789 35.4914C55.1672 35.4785 55.1513 35.4712 55.1347 35.4712C55.1182 35.4712 55.1023 35.4785 55.0906 35.4914C55.0789 35.5043 55.0723 35.5218 55.0723 35.54C55.1386 37.4234 55.6222 39.2165 55.9537 41.2719C54.7057 42.5619 53.3992 44.3464 51.2737 44.9269C49.9594 45.2924 43.8052 46.7716 42.9862 46.8361C42.3154 46.0105 41.044 41.8911 41.1493 41.3407ZM40.4083 41.9126C40.4083 41.9126 40.8763 41.7879 40.8685 41.7062C41.2327 43.2172 41.6914 44.6985 42.2413 46.1395C41.8868 46.2604 41.5243 46.351 41.1571 46.4104C40.9348 46.4104 41.0908 46.6254 40.5487 45.2064C40.2147 44.3243 39.9282 43.4211 39.6907 42.5017C39.6244 42.205 39.5113 42.2351 40.4083 41.9126ZM35.8414 42.8199C36.1495 42.4458 36.3718 42.3899 39.4528 42.8199C39.7269 43.8452 40.059 44.8505 40.4473 45.8299C39.8133 46.3749 39.0866 46.7741 38.3101 47.0038C38.2867 46.8189 38.2321 46.8748 38.3647 46.8877C38.4767 46.8912 38.588 46.8669 38.6904 46.8167C38.7927 46.7665 38.8836 46.6915 38.9562 46.5975C39.0288 46.5034 39.0813 46.3925 39.1099 46.2731C39.1385 46.1536 39.1424 46.0286 39.1213 45.9073C39.0901 45.4773 37.9747 44.5829 37.6588 44.3378C37.8464 44.3804 38.041 44.364 38.2204 44.2905C38.2365 44.2848 38.2498 44.2723 38.2575 44.2558C38.2652 44.2393 38.2666 44.22 38.2614 44.2024C38.2562 44.1847 38.2449 44.17 38.2299 44.1615C38.2149 44.1531 38.1975 44.1515 38.1814 44.1572C37.5262 44.3464 36.8632 43.4864 36.7774 43.4606C36.4771 43.3789 36.6643 44.1486 35.9974 44.6087C35.8999 44.6775 35.5255 44.5227 35.5021 44.312C35.4531 44.0512 35.4581 43.7815 35.5168 43.5231C35.5756 43.2647 35.6866 43.0243 35.8414 42.8199ZM31.4812 44.1744C31.9804 43.9766 34.5232 43.108 35.2564 43.3144C35.1739 43.6579 35.1553 44.0163 35.2018 44.3679C35.2266 44.4796 35.273 44.5841 35.3377 44.6743C35.4024 44.7644 35.484 44.8381 35.5769 44.8904C35.6698 44.9426 35.7719 44.9722 35.8761 44.977C35.9803 44.9818 36.0842 44.9618 36.1807 44.9183C36.4525 44.7185 36.6568 44.4252 36.7618 44.0841C37.1089 44.3163 38.8327 45.5762 38.8093 46.0234C38.8093 46.3244 38.665 46.5781 38.392 46.5523C38.1616 46.4613 37.9437 46.3354 37.7446 46.1782C37.5443 46.0018 37.3332 45.8409 37.1128 45.6966C37.0778 45.6766 37.0373 45.6715 36.999 45.6824C36.9608 45.6934 36.9276 45.7195 36.9058 45.7558C36.884 45.7921 36.8752 45.836 36.881 45.8791C36.8868 45.9221 36.9069 45.9613 36.9373 45.989C36.9373 45.989 37.2298 46.2298 37.5535 46.462C38.041 46.892 38.2087 47.2876 37.6042 47.4897C37.5096 47.5207 37.4102 47.5298 37.3122 47.5165C37.2142 47.5032 37.1198 47.4677 37.0348 47.4123C36.9355 47.1959 36.8036 46.9997 36.6448 46.8318C36.574 46.6309 36.447 46.4601 36.2822 46.3442C36.1174 46.2282 35.9234 46.1731 35.7283 46.1868C35.5255 46.2126 35.5099 46.3244 35.5294 46.2212C35.623 45.7095 35.0302 45.3999 34.6168 45.4859C33.9499 45.6321 33.5794 46.6039 33.361 47.3134C33.2284 47.623 33.751 47.279 31.4695 48.1734C31.5338 46.9245 31.5338 45.6727 31.4695 44.4238C31.45 44.1271 31.4422 44.1959 31.4812 44.1744ZM33.4702 47.3607C33.6847 46.8533 34.1566 45.903 34.6597 45.817C34.8547 45.7783 35.2486 45.9245 35.2057 46.1438C35.1213 46.7261 34.8778 47.2661 34.5076 47.6918C34.5544 47.7778 33.3337 47.8036 33.4702 47.3607ZM35.6776 46.5394C35.7712 46.4362 36.3172 46.6469 36.3328 46.9694C36.3601 47.5069 35.896 48.1476 35.4943 48.4443C35.3656 48.5432 34.8586 48.0874 34.7416 47.9025C35.0202 47.4214 35.3332 46.9656 35.6776 46.5394ZM36.3367 47.9713C36.364 47.9283 36.754 46.9737 36.8203 47.7649C36.8476 48.0745 36.4303 48.2379 36.1573 48.1949C36.2208 48.124 36.2807 48.0494 36.3367 47.9713ZM45.0103 53.5613C43.3684 54.9674 43.1344 56.8164 43.4035 59.0223C40.7671 57.9903 38.7547 57.3023 37.9708 57.2292C36.9099 57.2533 35.8539 57.3974 34.8196 57.6592C34.9249 56.5025 34.8781 52.4433 34.1332 51.6091C33.3883 50.7749 30.6856 49.6354 29.6677 49.2054H29.8978C29.9875 49.1538 29.8393 48.7023 30.1786 48.6765C30.5881 48.6507 31.1614 48.8227 31.3486 48.6421C31.4045 48.5485 31.4368 48.4401 31.4422 48.3282C31.8712 48.1777 32.8813 47.838 33.3922 47.6918C33.564 47.8421 33.7651 47.9464 33.9796 47.9964C34.1942 48.0464 34.4163 48.0407 34.6285 47.9799C34.7455 48.268 35.2915 48.9001 35.6308 48.6937C35.725 48.6338 35.8149 48.5662 35.8999 48.4916C36.1466 48.567 36.4086 48.555 36.6487 48.4572C36.7758 48.419 36.8892 48.3388 36.9736 48.2273C37.058 48.1158 37.1093 47.9784 37.1206 47.8337C37.3248 47.8984 37.5426 47.888 37.741 47.8043C37.9394 47.7205 38.1077 47.5678 38.2204 47.3693C39.0755 47.1575 39.8757 46.734 40.5604 46.1309C40.6345 46.3072 40.7047 46.4577 40.7632 46.5609C40.7826 46.5972 40.8099 46.6276 40.8425 46.6494C40.8752 46.6711 40.9123 46.6836 40.9504 46.6856C41.3404 46.7286 42.2608 46.2556 42.2998 46.2556C42.4335 46.5629 42.5997 46.8516 42.7951 47.1156C42.8653 47.193 42.9823 47.1715 43.0915 47.1586C44.2225 47.0081 49.8385 45.6751 51.34 45.2623C53.29 44.7248 54.5614 43.2155 55.8991 41.7793C55.825 44.2475 56.1175 45.4515 55.2322 50.2976C53.3914 50.55 51.5675 50.9349 49.7722 51.45C48.2005 51.9445 46.3285 52.4347 45.0103 53.5656V53.5613ZM50.7004 62.0452L50.5639 61.985C50.5327 59.8006 51.0241 57.7882 52.4749 56.2961C52.6033 56.3321 52.7336 56.3594 52.8649 56.3778C51.3712 57.7882 50.7823 59.8436 50.7004 62.0452ZM56.8585 54.8771C55.6885 55.6339 56.0317 56.0424 54.9592 56.1671C54.1 56.2322 53.2368 56.1583 52.3969 55.9478C51.7183 55.707 52.0771 55.4189 52.7869 55.3329C52.9078 55.3544 53.8594 55.363 54.3079 55.3329C54.3446 55.3265 54.378 55.3058 54.402 55.2747C54.4261 55.2436 54.4394 55.204 54.4394 55.1631C54.4394 55.1221 54.4261 55.0826 54.402 55.0514C54.378 55.0203 54.3446 54.9997 54.3079 54.9932C53.8021 54.9452 53.2939 54.9366 52.7869 54.9674C52.4641 54.9623 52.1426 54.9205 51.8275 54.8427C51.7962 54.7863 51.778 54.7223 51.7746 54.6562C51.7711 54.5902 51.7827 54.5242 51.808 54.4643C52.2175 54.1934 54.148 54.2966 54.4678 54.2837C54.5055 54.2772 54.5398 54.256 54.5645 54.2241C54.5893 54.1922 54.6029 54.1516 54.6029 54.1096C54.6029 54.0676 54.5893 54.0269 54.5645 53.995C54.5398 53.9631 54.5055 53.942 54.4678 53.9354C53.8279 53.9503 53.1879 53.913 52.5529 53.8236C52.2799 53.772 51.6442 53.6215 51.691 53.3162C51.7768 52.7658 52.8025 53.2388 53.524 53.1829C54.0331 53.1745 54.537 53.0698 55.0138 52.8733C55.0495 52.8613 55.0794 52.8342 55.097 52.7979C55.1145 52.7616 55.1183 52.7192 55.1074 52.6798C55.0966 52.6405 55.072 52.6075 55.0391 52.5881C55.0062 52.5688 54.9676 52.5646 54.9319 52.5766C54.4439 52.706 53.9489 52.8007 53.4499 52.8604C53.4183 52.8532 53.3901 52.8335 53.3707 52.805C53.3514 52.7765 53.3421 52.7411 53.3446 52.7056C53.3502 52.6253 53.3687 52.5466 53.3992 52.4734C53.6003 52.1842 53.8704 51.9624 54.1792 51.8327C55.2868 51.3253 56.1292 51.8327 57.3967 51.923C57.5558 52.7181 57.7577 53.5021 58.0012 54.2708C57.6126 54.4421 57.2358 54.6448 56.8741 54.8771H56.8585ZM58.3483 54.3525C58.2118 53.8451 57.7048 52.0047 57.6541 51.5747C57.8554 51.4663 58.0674 51.384 58.2859 51.3296C58.4653 52.0649 58.7968 53.342 59.0113 54.0558C58.8021 54.1712 58.5857 54.2703 58.3639 54.3525H58.3483ZM59.452 54.3525C59.2453 53.8365 58.633 51.4328 58.4926 50.8308C59.1634 50.2245 65.185 46.9608 66.082 45.9675C66.3628 45.6579 65.4151 39.8314 66.5266 35.0369C67.1194 32.4569 68.2816 28.402 70.6801 28.4923C72.3259 28.5525 73.2658 29.9371 73.8001 31.6657C74.779 34.8477 74.389 39.2638 74.389 39.2208C74.389 42.8285 73.219 48.2508 70.879 50.8308C69.1124 52.783 60.5518 54.5718 59.4676 54.3654L59.452 54.3525ZM75.5317 57.6205C75.0754 57.4872 72.9811 56.6358 72.0958 56.5541C67.4977 56.1241 67.7824 55.1609 64.9393 53.7849C66.4993 53.3549 69.9664 52.3573 71.1169 51.1017C73.5466 48.4443 74.6698 42.9661 74.6581 39.2595C74.7484 37.9614 74.7484 36.6575 74.6581 35.3594C75.52 40.7516 76.0504 55.9865 75.5317 57.6205Z" fill="black"/>
<path fill-rule="evenodd" clip-rule="evenodd" d="M15.2294 28.5527L13.9502 28.7161C14.3402 29.1205 14.6953 29.5639 15.011 30.0405L15.3659 28.7505C15.3767 28.7274 15.3814 28.7014 15.3793 28.6755C15.3773 28.6495 15.3686 28.6248 15.3543 28.6041C15.34 28.5834 15.3207 28.5676 15.2986 28.5585C15.2765 28.5494 15.2525 28.5474 15.2294 28.5527ZM52.2248 67.7945C51.9031 67.57 51.5479 67.4099 51.1757 67.3215C52.061 65.7348 51.9011 63.8815 51.6671 63.7181C51.4468 63.4706 51.1536 63.3181 50.8403 63.2881C49.6703 63.0172 46.835 62.9957 46.0862 63.6837C45.9224 63.8342 45.8249 64.0793 45.9848 64.2427C45.9087 65.262 46.1024 66.2837 46.5425 67.1839C46.1525 67.2656 45.7001 67.429 45.5519 67.816C45.5263 67.8993 45.5194 67.9881 45.5316 68.0749C45.5438 68.1618 45.5749 68.2441 45.6221 68.3148C45.9215 68.7242 46.3313 69.0179 46.7921 69.1533C47.6061 69.4264 48.4601 69.5243 49.3076 69.4414C50.1173 69.4051 50.9201 69.2607 51.6983 69.0114C52.5602 68.6588 52.5524 68.0783 52.2248 67.7945ZM46.1213 64.3201C46.9596 64.5726 47.8264 64.6913 48.6953 64.6727C49.6427 64.6013 50.5782 64.399 51.4799 64.0707C51.558 64.6623 51.5293 65.265 51.3954 65.8443C51.2616 66.4236 51.0252 66.968 50.6999 67.4462C50.6213 67.5981 50.5078 67.7245 50.3709 67.8128C50.234 67.9011 50.0785 67.9482 49.9199 67.9493C49.3739 68.0267 47.8841 68.0697 47.5799 67.9192C46.5932 67.4161 46.1057 65.5886 46.1213 64.3201ZM49.292 69.0501C48.487 69.1342 47.6748 69.0436 46.9013 68.7835C46.5511 68.6784 46.2288 68.4823 45.9614 68.2116C45.899 68.1385 45.7976 67.9923 45.8288 67.902C45.9302 67.6182 46.4255 67.472 46.6985 67.4204C46.8939 67.7491 47.1625 68.017 47.4785 68.1987C47.8685 68.418 50.0291 68.3922 50.4308 68.1643C50.6812 67.9958 50.8933 67.7664 51.0509 67.4935C51.281 67.5666 52.0844 67.8676 52.139 68.1084C52.3145 68.848 49.994 69.0243 49.292 69.0716V69.0501Z" fill="black"/>
</svg>
