<svg width="229" height="171" viewBox="0 0 229 171" fill="none" xmlns="http://www.w3.org/2000/svg">
<path d="M94.4787 47.0262C116.554 62.1341 122.367 92.0989 107.464 113.954C92.5613 135.81 62.5849 141.28 40.51 126.172C18.4352 111.064 12.6213 81.0991 27.5244 59.2436C42.4274 37.3881 72.4039 31.9182 94.4787 47.0262ZM51.7403 109.702C64.6281 118.523 82.1291 115.329 90.8298 102.57C99.5305 89.81 96.1362 72.3158 83.2484 63.4955C70.3607 54.6751 52.8597 57.8686 44.159 70.6283C35.4582 83.388 38.8525 100.882 51.7403 109.702Z" fill="#FBFBFB"/>
<path d="M100.721 81.7352C105.249 55.3714 130.06 37.5927 156.139 42.0255C182.218 46.4582 199.689 71.4238 195.162 97.7876C190.634 124.151 165.823 141.93 139.744 137.497C113.665 133.064 96.1939 108.099 100.721 81.7352ZM175.51 94.4472C178.153 79.0555 167.953 64.48 152.728 61.8921C137.502 59.3041 123.017 69.6837 120.373 85.0755C117.73 100.467 127.93 115.043 143.155 117.631C158.381 120.219 172.866 109.839 175.51 94.4472Z" fill="#FBFBFB"/>
<path d="M104.895 45.1097C98.5511 37.4883 90.0357 31.968 80.4999 29.2953C70.964 26.6226 60.8676 26.9263 51.5756 30.1653C42.2837 33.4043 34.2443 39.4225 28.5443 47.4061C22.8443 55.3898 19.7587 64.954 19.7046 74.8056C19.6504 84.6572 22.6304 94.3212 28.2416 102.491C33.8529 110.661 41.8247 116.942 51.0794 120.486C60.3341 124.031 70.4253 124.666 79.9888 122.308C89.5523 119.949 98.1268 114.71 104.553 107.299L89.3114 94.1061C85.5596 98.433 80.5536 101.492 74.9702 102.869C69.3868 104.246 63.4953 103.874 58.0922 101.805C52.6891 99.7361 48.035 96.0688 44.759 91.2991C41.483 86.5294 39.7432 80.8874 39.7749 75.1358C39.8065 69.3842 41.6079 63.8004 44.9357 59.1394C48.2635 54.4783 52.9571 50.9648 58.3819 49.0737C63.8068 47.1827 69.7013 47.0054 75.2685 48.5658C80.8358 50.1262 85.8073 53.3491 89.5109 57.7986L104.895 45.1097Z" fill="#136F63"/>
<path d="M107.761 52.0266C103.182 58.9644 100.443 66.9648 99.8085 75.2568C99.1741 83.5488 100.665 91.8526 104.139 99.368C107.612 106.883 112.95 113.357 119.638 118.164C126.326 122.972 134.14 125.951 142.324 126.816C150.509 127.68 158.79 126.4 166.368 123.099C173.946 119.798 180.566 114.588 185.59 107.97C190.614 101.352 193.872 93.5496 195.051 85.3152C196.23 77.0807 195.29 68.6917 192.321 60.9568L173.711 68.3349C175.445 72.8507 175.994 77.7484 175.305 82.5559C174.617 87.3634 172.715 91.9185 169.782 95.7822C166.848 99.646 162.984 102.688 158.559 104.615C154.135 106.542 149.301 107.29 144.522 106.785C139.744 106.28 135.182 104.541 131.277 101.734C127.373 98.9272 124.256 95.1479 122.228 90.7603C120.201 86.3726 119.33 81.5246 119.701 76.6836C120.071 71.8426 121.67 67.1717 124.343 63.1213L107.761 52.0266Z" fill="#136F63"/>
</svg>
