<svg width="161" height="112" viewBox="0 0 161 112" fill="none" xmlns="http://www.w3.org/2000/svg">
<path d="M73.8532 32.0555C69.3449 26.6391 63.2932 22.716 56.5162 20.8165C49.7393 18.9171 42.564 19.1329 35.9604 21.4348C29.3568 23.7367 23.6434 28.0137 19.5925 33.6875C15.5416 39.3614 13.3488 46.1584 13.3103 53.1597C13.2718 60.1611 15.3896 67.029 19.3774 72.8351C23.3652 78.6412 29.0306 83.1054 35.6077 85.6241C42.1849 88.1429 49.3565 88.5947 56.153 86.9186C62.9496 85.2424 69.0433 81.5191 73.6104 76.252L62.7784 66.8762C60.1121 69.9513 56.5544 72.125 52.5864 73.1036C48.6184 74.0822 44.4315 73.8184 40.5916 72.3479C36.7517 70.8773 33.4441 68.2711 31.1159 64.8813C28.7878 61.4916 27.5514 57.4819 27.5738 53.3944C27.5963 49.3069 28.8765 45.3386 31.2415 42.0261C33.6065 38.7136 36.9421 36.2166 40.7975 34.8726C44.6528 33.5287 48.8419 33.4027 52.7984 34.5117C56.755 35.6206 60.2881 37.911 62.9202 41.0732L73.8532 32.0555Z" fill="white"/>
<path d="M75.89 36.9771C72.6357 41.9077 70.6894 47.5935 70.2385 53.4864C69.7876 59.3793 70.8474 65.2807 73.3157 70.6217C75.7841 75.9627 79.5777 80.5632 84.331 83.9799C89.0842 87.3965 94.6368 89.514 100.454 90.1283C106.27 90.7426 112.155 89.833 117.541 87.4871C122.926 85.1412 127.631 81.4381 131.201 76.7349C134.772 72.0316 137.088 66.4867 137.925 60.6347C138.763 54.7826 138.095 48.8207 135.985 43.3236L122.76 48.5671C123.991 51.7764 124.382 55.2571 123.893 58.6737C123.403 62.0903 122.051 65.3275 119.967 68.0734C117.882 70.8192 115.136 72.9812 111.991 74.3508C108.847 75.7203 105.412 76.2514 102.016 75.8928C98.6196 75.5341 95.3779 74.2979 92.6028 72.3032C89.8278 70.3085 87.613 67.6226 86.1719 64.5044C84.7308 61.3861 84.1121 57.9408 84.3753 54.5004C84.6386 51.0599 85.7749 47.7405 87.6748 44.8619L75.89 36.9771Z" fill="white"/>
</svg>
