<svg width="163" height="115" viewBox="0 0 163 115" fill="none" xmlns="http://www.w3.org/2000/svg">
<path d="M66.7602 27.0238C82.4484 37.7607 86.5802 59.0561 75.9889 74.5883C65.3976 90.1205 44.094 94.0079 28.4058 83.271C12.7177 72.5341 8.58593 51.2387 19.1772 35.7065C29.7685 20.1743 51.0721 16.2869 66.7602 27.0238ZM36.387 71.5666C45.546 77.835 57.9836 75.5655 64.167 66.4974C70.3505 57.4294 67.9382 44.9967 58.7791 38.7282C49.6201 32.4598 37.1825 34.7293 30.9991 43.7974C24.8156 52.8654 27.2279 65.2981 36.387 71.5666Z" fill="#3B7AAF"/>
<path d="M71.1971 51.6904C74.4147 32.9542 92.0477 20.3193 110.582 23.4696C129.115 26.6199 141.531 44.3624 138.314 63.0986C135.096 81.8347 117.463 94.4696 98.9294 91.3194C80.3956 88.1691 67.9795 70.4266 71.1971 51.6904ZM124.348 60.7247C126.226 49.786 118.977 39.4276 108.157 37.5884C97.3364 35.7492 87.0418 43.1257 85.1633 54.0643C83.2848 65.003 90.5336 75.3614 101.354 77.2006C112.175 79.0398 122.469 71.6633 124.348 60.7247Z" fill="#3B7AAF"/>
<path d="M73.8532 33.4813C69.3449 28.0649 63.2932 24.1418 56.5162 22.2423C49.7393 20.3429 42.564 20.5587 35.9604 22.8606C29.3568 25.1625 23.6434 29.4395 19.5925 35.1133C15.5416 40.7871 13.3488 47.5842 13.3103 54.5855C13.2718 61.5869 15.3896 68.4548 19.3774 74.2609C23.3652 80.067 29.0306 84.5312 35.6077 87.0499C42.1849 89.5687 49.3565 90.0205 56.1531 88.3444C62.9496 86.6682 69.0433 82.9449 73.6104 77.6778L62.7784 68.302C60.1121 71.377 56.5544 73.5508 52.5864 74.5294C48.6184 75.5079 44.4315 75.2441 40.5916 73.7736C36.7517 72.3031 33.4441 69.6968 31.1159 66.3071C28.7878 62.9174 27.5514 58.9077 27.5738 54.8202C27.5963 50.7326 28.8765 46.7644 31.2415 43.4519C33.6065 40.1393 36.9421 37.6423 40.7975 36.2984C44.6528 34.9545 48.8419 34.8285 52.7984 35.9375C56.755 37.0464 60.2881 39.3368 62.9202 42.499L73.8532 33.4813Z" fill="white"/>
<path d="M75.8902 38.399C72.636 43.3296 70.6896 49.0153 70.2387 54.9083C69.7879 60.8012 70.8477 66.7026 73.316 72.0436C75.7843 77.3846 79.5779 81.9851 84.3312 85.4018C89.0845 88.8184 94.6371 90.9359 100.454 91.5502C106.271 92.1645 112.155 91.2549 117.541 88.909C122.927 86.5631 127.631 82.86 131.202 78.1568C134.772 73.4535 137.088 67.9086 137.926 62.0565C138.763 56.2045 138.095 50.2426 135.985 44.7455L122.76 49.989C123.992 53.1983 124.382 56.679 123.893 60.0956C123.404 63.5121 122.052 66.7494 119.967 69.4952C117.883 72.2411 115.136 74.403 111.992 75.7726C108.847 77.1422 105.412 77.6733 102.016 77.3146C98.6199 76.956 95.3781 75.7198 92.6031 73.725C89.828 71.7303 87.6132 69.0444 86.1721 65.9262C84.7311 62.808 84.1123 59.3627 84.3756 55.9222C84.6388 52.4818 85.7751 49.1623 87.675 46.2838L75.8902 38.399Z" fill="white"/>
</svg>
