<svg width="226" height="225" viewBox="0 0 226 225" fill="none" xmlns="http://www.w3.org/2000/svg">
<path d="M64.166 78.5147C57.9845 87.365 54.4006 97.7777 53.8119 108.598C53.2233 119.417 55.6528 130.221 60.8311 139.811C66.0093 149.401 73.7339 157.401 83.1477 162.925C92.5616 168.448 103.297 171.279 114.162 171.103C125.028 170.928 135.599 167.752 144.703 161.928C153.807 156.105 161.088 147.862 165.739 138.113C170.389 128.364 172.227 117.491 171.048 106.7C169.87 95.9087 165.721 85.6213 159.061 76.9788L146.931 86.2244C151.853 92.6123 154.92 100.216 155.791 108.192C156.662 116.169 155.304 124.205 151.867 131.411C148.429 138.617 143.048 144.71 136.318 149.014C129.589 153.318 121.776 155.665 113.744 155.795C105.713 155.925 97.7785 153.833 90.8204 149.75C83.8622 145.668 78.1527 139.754 74.3253 132.666C70.4978 125.578 68.7021 117.592 69.1372 109.595C69.5723 101.598 72.2213 93.9012 76.7903 87.3596L64.166 78.5147Z" fill="#1751E5"/>
<path d="M141.931 91.7028C137.597 85.6351 131.508 81.0262 124.494 78.5032C117.48 75.9802 109.88 75.6655 102.729 77.602C95.5787 79.5385 89.2239 83.6321 84.5296 89.326C79.8353 95.0199 77.0294 102.037 76.4936 109.424C75.9579 116.811 77.7182 124.208 81.5352 130.609C85.3522 137.01 91.0406 142.104 97.8263 145.199C104.612 148.294 112.166 149.238 119.46 147.904C126.754 146.57 133.434 143.022 138.592 137.743L127.758 127.205C124.747 130.287 120.847 132.358 116.589 133.137C112.33 133.916 107.92 133.364 103.958 131.558C99.9966 129.751 96.6757 126.777 94.4472 123.04C92.2187 119.303 91.191 114.984 91.5038 110.671C91.8166 106.359 93.4548 102.262 96.1954 98.9377C98.936 95.6135 102.646 93.2235 106.821 92.0929C110.996 90.9624 115.432 91.1461 119.527 92.6191C123.623 94.0921 127.177 96.7828 129.708 100.325L141.931 91.7028Z" fill="white"/>
</svg>
