<svg width="76" height="65" viewBox="0 0 76 65" fill="none" xmlns="http://www.w3.org/2000/svg">
<path d="M64.4044 9.93184L64.6327 49.0611L75.8912 48.9946L75.6628 9.86524L64.4044 9.93184Z" fill="#FFBA08"/>
<path d="M30.5517 23.3309L30.703 49.2619L41.9615 49.1953L41.8102 23.2643L30.5517 23.3309Z" fill="#FFBA08"/>
<path d="M59.878 53.5924L46.7688 53.67L46.834 64.8498L59.9432 64.7722L59.878 53.5924Z" fill="#FFBA08"/>
<path d="M75.9997 47.6214C76.0128 49.8611 75.5876 52.0815 74.7483 54.1558C73.9091 56.2301 72.6723 58.1176 71.1085 59.7106C69.5447 61.3037 67.6846 62.571 65.6343 63.4403C63.5841 64.3095 61.3839 64.7637 59.1593 64.7768L59.0925 53.3379C59.8251 53.3336 60.5496 53.184 61.2248 52.8978C61.8999 52.6115 62.5124 52.1942 63.0274 51.6696C63.5423 51.145 63.9496 50.5235 64.226 49.8404C64.5023 49.1573 64.6424 48.4262 64.6381 47.6886L75.9997 47.6214Z" fill="#FFBA08"/>
<path d="M30.6956 48.0447C30.7087 50.2844 31.1598 52.4996 32.0232 54.5638C32.8866 56.628 34.1454 58.5008 35.7276 60.0752C37.3099 61.6496 39.1847 62.8949 41.2449 63.7398C43.3052 64.5848 45.5106 65.0129 47.7351 64.9997L47.6684 53.5608C46.9358 53.5651 46.2096 53.4241 45.5312 53.1459C44.8527 52.8677 44.2353 52.4576 43.7143 51.9391C43.1933 51.4207 42.7788 50.804 42.4944 50.1242C42.2101 49.4445 42.0616 48.715 42.0573 47.9775L30.6956 48.0447Z" fill="#FFBA08"/>
<path d="M33.937 0.0707992C40.2818 0.0492865 46.396 2.46455 51.0333 6.82458C55.6706 11.1846 58.4816 17.1609 58.8938 23.5356L47.7757 24.2641C47.5479 20.739 45.9932 17.4341 43.4289 15.023C40.8645 12.612 37.4834 11.2762 33.9747 11.2881L33.937 0.0707992Z" fill="#FFBA08"/>
<path d="M34.1832 11.3531L16.4472 11.4581L16.3811 0.122981L34.117 0.018064L34.1832 11.3531Z" fill="#FFBA08"/>
<path d="M24.8205 45.5702L16.6466 45.6186L16.5804 34.2835L24.7544 34.2351L24.8205 45.5702Z" fill="#FFBA08"/>
<path d="M11.187 16.3004L11.264 29.4988L0.159769 29.5645L0.0827458 16.3661L11.187 16.3004Z" fill="#FFBA08"/>
<path d="M16.9275 0C14.703 0.0131595 12.5027 0.467336 10.4525 1.3366C8.40222 2.20586 6.5421 3.47319 4.97832 5.06621C3.41454 6.65924 2.17773 8.54677 1.33849 10.621C0.499249 12.6953 0.0740262 14.9157 0.0870969 17.1554L11.4487 17.0882C11.4444 16.3507 11.5845 15.6195 11.8608 14.9364C12.1372 14.2534 12.5445 13.6318 13.0594 13.1072C13.5744 12.5826 14.1869 12.1653 14.8621 11.8791C15.5372 11.5928 16.2617 11.4433 16.9943 11.4389L16.9275 0Z" fill="#FFBA08"/>
<path d="M17.0395 45.6138C14.8149 45.627 12.6095 45.1989 10.5493 44.3539C8.48903 43.509 6.61425 42.2637 5.03198 40.6893C3.44972 39.1149 2.19096 37.2421 1.32757 35.1779C0.464178 33.1137 0.0130705 30.8985 0 28.6588L11.3616 28.5916C11.366 29.3291 11.5145 30.0586 11.7988 30.7383C12.0831 31.4181 12.4976 32.0348 13.0187 32.5532C13.5397 33.0717 14.1571 33.4818 14.8355 33.76C15.514 34.0382 16.2402 34.1792 16.9728 34.1749L17.0395 45.6138Z" fill="#FFBA08"/>
</svg>
