<svg width="230" height="224" viewBox="0 0 230 224" fill="none" xmlns="http://www.w3.org/2000/svg">
<path d="M65.5591 74.9322C59.2659 83.9424 55.6172 94.5432 55.0179 105.558C54.4186 116.574 56.8921 127.573 62.1639 137.336C67.4357 147.099 75.2998 155.244 84.8837 160.867C94.4677 166.491 105.397 169.373 116.459 169.194C127.521 169.015 138.283 165.782 147.551 159.853C156.82 153.924 164.233 145.532 168.967 135.607C173.701 125.682 175.572 114.613 174.372 103.627C173.172 92.6405 168.948 82.1671 162.169 73.3685L147.751 84.3574C152.466 90.4764 155.404 97.7601 156.238 105.401C157.073 113.041 155.771 120.739 152.479 127.641C149.186 134.544 144.031 140.38 137.585 144.503C131.14 148.626 123.655 150.875 115.962 150.999C108.269 151.124 100.668 149.119 94.0031 145.209C87.3379 141.298 81.8689 135.633 78.2026 128.844C74.5363 122.054 72.8161 114.405 73.2329 106.744C73.6497 99.0834 76.1871 91.7111 80.5637 85.4449L65.5591 74.9322Z" fill="#2FFF00"/>
<path d="M144.729 88.3584C140.316 82.1811 134.118 77.489 126.977 74.9203C119.836 72.3517 112.099 72.0314 104.819 74.0029C97.539 75.9743 91.0694 80.1419 86.2903 85.9387C81.5112 91.7354 78.6546 98.8798 78.1092 106.4C77.5637 113.92 79.3559 121.451 83.2418 127.968C87.1278 134.484 92.9189 139.671 99.8273 142.821C106.736 145.972 114.426 146.933 121.852 145.575C129.278 144.217 136.078 140.605 141.329 135.231L130.3 124.502C127.234 127.639 123.264 129.748 118.928 130.541C114.593 131.334 110.103 130.773 106.07 128.933C102.037 127.094 98.6558 124.066 96.3871 120.261C94.1184 116.457 93.072 112.06 93.3905 107.67C93.709 103.279 95.3767 99.1083 98.1669 95.724C100.957 92.3397 104.734 89.9066 108.984 88.7556C113.234 87.6046 117.751 87.7916 121.92 89.2912C126.09 90.7909 129.708 93.5302 132.285 97.1367L144.729 88.3584Z" fill="white"/>
</svg>
