<svg width="81" height="86" viewBox="0 0 81 86" fill="none" xmlns="http://www.w3.org/2000/svg">
<path d="M17.7422 31.6312L17.9042 31.528C17.7694 31.512 17.6338 31.5498 17.5238 31.6341C17.4138 31.7183 17.3372 31.8429 17.3089 31.9838C17.2967 31.8677 17.6612 31.6871 17.7422 31.6312ZM19.3744 32.7922C19.6255 33.2222 19.4837 33.3383 19.103 33.4673C19.4716 33.5189 19.6579 33.3254 19.6538 33.1233C19.6538 32.8051 19.1395 32.1343 18.8438 31.8806C19.0048 32.1945 19.1819 32.4989 19.3744 32.7922ZM17.8192 32.3149C17.7341 32.3665 17.7868 32.4396 17.9042 32.7234C17.9085 32.7367 17.9155 32.7489 17.9248 32.759C17.934 32.7691 17.9453 32.7768 17.9578 32.7817C17.9702 32.7866 17.9835 32.7884 17.9967 32.7871C18.0099 32.7858 18.0227 32.7814 18.0341 32.7742C18.0455 32.767 18.0553 32.7572 18.0626 32.7455C18.07 32.7338 18.0748 32.7205 18.0768 32.7066C18.0787 32.6926 18.0776 32.6784 18.0737 32.665C18.0698 32.6515 18.0631 32.6391 18.0541 32.6288L17.9366 32.3493C17.9312 32.3387 17.9237 32.3294 17.9148 32.322C17.9059 32.3145 17.8957 32.309 17.8847 32.3058C17.8738 32.3026 17.8624 32.3017 17.8511 32.3033C17.8398 32.3049 17.829 32.3088 17.8192 32.3149ZM19.4756 32.0397C19.5283 32.1472 19.6781 32.0397 19.6295 31.9494C19.5809 31.8591 19.5526 31.7645 19.508 31.6785C19.4635 31.5925 19.3055 31.6785 19.3582 31.7731C19.4108 31.8677 19.4392 31.9537 19.4756 32.0397ZM19.5283 33.9704C19.2436 34.1186 18.9169 34.1477 18.613 34.0521C18.6669 34.132 18.7394 34.1958 18.8235 34.237C18.9075 34.2782 19.0002 34.2956 19.0925 34.2873C19.1848 34.2791 19.2734 34.2456 19.3498 34.19C19.4262 34.1344 19.4877 34.0588 19.5283 33.9704ZM75.6208 29.3436L78.5206 4.59709L69.3595 3.38879L68.4442 11.3868L68.0878 11.3395L69.0233 3.34149L59.9918 2.15039C58.6958 11.8641 58.9793 9.08629 55.1318 43.5766L64.2686 44.7849C64.2686 44.9182 64.2119 45.3224 64.2038 45.3525L55.0792 44.1442C55.0792 44.1442 53.0542 60.3509 53.0096 60.6992C52.9813 60.9357 52.2361 60.6132 71.668 63.5071L75.5722 29.7564L66.4192 28.5524L66.4678 28.1224L75.6208 29.3436ZM56.2375 35.2604C56.5169 32.8868 57.1406 27.5548 57.1771 27.2581L66.1883 28.4492C65.9089 30.84 65.2811 36.1892 65.2487 36.4515L56.2375 35.2604ZM62.2841 61.757L53.2729 60.5659L54.2165 52.512L63.2278 53.7031C63.2237 53.7504 62.276 61.8215 62.2841 61.7699V61.757ZM72.2633 54.7523C69.5944 54.3997 63.8393 53.6085 63.5032 53.5612L64.4468 45.5073C76.4186 47.0897 71.9839 46.5307 73.2515 46.6984C72.9721 49.1021 72.2957 54.4728 72.2633 54.7652V54.7523ZM74.2438 38.1844C73.9643 40.5752 73.3447 45.9244 73.3123 46.2383C70.6433 45.89 64.8356 45.0945 64.4995 45.0515C64.7789 42.6607 65.4067 37.3115 65.4431 36.9976C68.108 37.3631 73.9076 38.1543 74.2438 38.1973V38.1844ZM66.2167 28.1912L57.2054 27.0044C57.4889 24.6136 58.1167 19.2644 58.1491 18.9505L67.1603 20.1373C66.5488 25.3704 66.2815 27.6709 66.2167 28.1912ZM67.2292 19.6815L58.2058 18.4904L59.1292 10.4924L68.1607 11.6104C68.0027 12.9778 67.2292 19.7417 67.2292 19.6815ZM76.2364 20.907C73.5715 20.5544 67.8164 19.7589 67.4803 19.7159L68.4199 11.7136L77.2165 12.9004C76.9492 15.2783 76.2607 20.6103 76.2242 20.907H76.2364ZM8.35028 32.5428C8.49431 32.2706 8.69183 32.0345 8.92943 31.8505C8.64273 32.61 8.60465 33.4497 8.82131 34.235C9.03797 35.0202 9.4968 35.7054 10.1242 36.1806C10.2335 36.2666 10.355 36.1075 10.2983 35.9957C9.97293 35.2492 9.87251 34.4142 10.0108 33.6049C10.3704 34.2981 10.8173 34.9361 11.3392 35.5012C11.4526 35.6302 11.6389 35.4324 11.5214 35.3077C11.0273 34.7143 11.1164 33.5146 11.1691 32.7793C11.2865 31.1883 12.137 30.6293 12.3841 29.7005C12.3928 29.6657 12.3884 29.6287 12.3718 29.5973C12.3551 29.566 12.3275 29.5428 12.295 29.5328C11.4015 29.4265 10.5017 29.6646 9.75968 30.2036C8.94968 30.7325 8.56898 31.5538 8.13968 32.4052C8.13293 32.4336 8.13489 32.4635 8.14528 32.4907C8.15566 32.5178 8.17393 32.5407 8.19742 32.5561C8.22091 32.5714 8.2484 32.5784 8.2759 32.576C8.30339 32.5736 8.32945 32.562 8.35028 32.5428Z" fill="black"/>
<path d="M54.136 11.0946C53.9011 10.3077 53.2207 8.37702 52.2892 8.20932C51.621 8.08892 51.5683 8.97902 51.4792 9.45632C50.6692 13.3865 47.2429 15.214 44.6185 17.6263C42.7717 19.3463 41.9131 21.5178 41.1234 23.8957C40.7184 23.8484 40.3134 24.244 40.038 24.545C38.5921 26.0242 37.3407 27.6711 36.0042 29.2406C34.7325 30.737 32.8614 32.0528 33.0153 34.2501C30.9295 36.3528 28.8721 38.5157 26.7297 40.8506C25.3932 38.9457 24.1134 37.7933 21.655 37.2816C20.8826 37.1141 20.092 37.062 19.306 37.1268C19.1278 37.0365 18.9537 36.671 18.8686 36.4861C18.8005 36.2903 18.7207 36.0993 18.6297 35.9142C18.9932 35.8897 19.3365 35.7281 19.5976 35.4584C20.4403 35.634 21.2493 35.9581 21.9912 36.4173C21.3351 33.8115 20.4076 27.1895 16.4427 27.6066C15.9688 27.6539 15.5314 27.9549 15.0697 27.9635C14.97 27.9623 14.8705 27.9753 14.7741 28.0022C11.9391 28.8278 11.7649 32.414 12.9111 34.7489C12.9708 34.89 13.0561 35.0171 13.1622 35.123C13.4943 35.4154 15.9283 35.7422 15.9972 36.0604C16.2888 37.6557 15.8554 38.1588 14.851 38.735C13.1419 39.6939 11.7447 40.5926 10.392 42.1406C7.70682 45.2796 7.48002 48.9905 9.27822 52.8261C9.78042 53.8882 10.8982 56.2661 12.0565 56.3822C12.4569 56.3839 12.8506 56.2742 13.1986 56.064C13.2351 56.064 13.474 55.8791 13.4781 55.8834C13.7332 56.0339 14.4582 56.451 14.2881 56.7047C14.1787 56.8681 13.9155 56.7047 13.8061 56.5972C13.792 56.5859 13.775 56.5796 13.7574 56.579C13.7397 56.5784 13.7223 56.5837 13.7076 56.5941C13.693 56.6045 13.6817 56.6195 13.6754 56.637C13.6691 56.6545 13.6681 56.6737 13.6725 56.6918L13.8061 57.268C13.8385 57.4142 13.9762 57.6722 13.8912 57.8184C13.8061 57.9646 13.4335 57.2938 13.393 57.2035C13.3796 57.1787 13.3588 57.1593 13.3339 57.1484C13.3089 57.1375 13.2813 57.1357 13.2553 57.1433C13.0771 57.1992 13.2553 57.5733 13.3039 57.6851C13.3039 57.7367 13.4619 58.1151 13.3971 58.1538C13.3323 58.1925 13.2472 58.0592 13.2229 58.0291C13.0731 57.827 13.0366 57.3411 12.8584 57.3411C12.6073 57.3411 12.9475 58.085 12.6924 57.9517C12.5992 57.9044 12.5425 57.7195 12.5061 57.6249C12.3974 57.2303 12.359 56.8176 12.3927 56.408C12.3407 56.7057 12.3203 57.0086 12.3319 57.311C12.2664 57.3704 12.2067 57.4367 12.1537 57.5088C8.62617 61.6755 6.26502 64.2985 4.21167 67.2741C3.77022 67.9148 2.24337 69.5703 2.51067 70.4389C2.84682 71.5397 4.59237 70.4389 5.09457 70.1293C7.11957 68.9339 8.89347 67.3601 10.6917 65.8293C16.3617 61.0305 22.9632 55.0363 29.265 48.7626C31.1588 48.2151 32.9188 47.2397 34.4247 45.9031C35.2798 45.122 36.0649 44.2583 36.7696 43.3231C36.8796 43.2105 36.9574 43.0672 36.9939 42.9097C37.0305 42.7522 37.0243 42.587 36.9762 42.433H37.3812C37.5701 42.4393 37.7579 42.3986 37.9294 42.3142C38.101 42.2299 38.2516 42.1042 38.3694 41.9471C38.418 41.831 38.3694 41.6934 38.1709 41.6762C38.2479 41.6762 38.4018 41.4956 38.4423 41.4397C38.6448 41.1645 38.4949 40.8119 38.1628 40.9538C38.0089 41.0226 38.098 41.0183 38.1628 40.8076C38.1765 40.7644 38.1794 40.7181 38.1714 40.6732C38.1634 40.6284 38.1447 40.5865 38.117 40.5516C38.0894 40.5166 38.0538 40.4898 38.0136 40.4736C37.9734 40.4575 37.9299 40.4525 37.8874 40.4593C37.5867 40.5227 37.2933 40.6208 37.0126 40.7517C37.3916 40.3823 37.7448 39.9842 38.0697 39.5606C38.3329 39.2037 38.8311 39.3155 39.228 39.1306C40.3944 38.6232 41.253 37.2988 42.1156 36.3786C43.5453 34.8392 45.2179 33.4632 46.5301 31.8163C46.7691 31.5239 47.3401 30.9305 47.3401 30.4489C47.3401 30.4489 48.6402 29.8727 48.7414 29.8254C54.456 27.0304 56.1529 17.7768 54.136 11.0946ZM15.661 34.5124C15.5718 34.5697 15.4696 34.6 15.3654 34.6C15.2611 34.6 15.1589 34.5697 15.0697 34.5124C14.446 34.1813 14.4582 33.274 15.0697 33.5062C15.1993 33.5535 15.3492 33.747 15.4747 33.6395C15.6003 33.532 15.5557 33.2826 15.6246 33.1536C15.9081 32.6161 17.0583 31.5153 16.9003 30.0533C17.5085 29.9351 18.1348 29.9795 18.7228 30.1823C19.0194 30.3576 19.2541 30.6309 19.3911 30.9606C19.2993 30.9069 19.1915 30.893 19.0903 30.9218C18.9891 30.9507 18.9024 31.0201 18.8484 31.1154C18.8889 31.1154 19.3911 30.9563 19.4154 31.0122C19.7702 31.6637 20.0219 32.3726 20.1606 33.1106C20.3307 34.6285 19.302 35.7594 18.4798 35.7508C18.4646 35.7496 18.4493 35.7528 18.4356 35.76C18.4219 35.7673 18.4103 35.7783 18.402 35.7919C18.3937 35.8056 18.3891 35.8213 18.3885 35.8376C18.3879 35.8538 18.3915 35.8699 18.3988 35.8841L18.5325 36.155C18.0303 36.9247 16.6492 37.015 16.2159 36.7871C16.1551 35.9099 15.742 34.435 15.6448 34.5124H15.661ZM14.1342 39.2424C14.9077 38.7565 15.9162 38.4598 16.1592 37.4665C16.6255 37.5874 17.1089 37.6152 17.5848 37.5482C17.8369 37.5291 18.0822 37.4524 18.3038 37.3232C18.5254 37.1941 18.7181 37.0156 18.8686 36.8C18.8706 36.7786 18.8706 36.757 18.8686 36.7355C18.9515 36.8643 19.0495 36.9814 19.1602 37.0838C19.191 37.1106 19.2234 37.135 19.2574 37.1569C19.3107 37.1805 19.3678 37.1926 19.4255 37.1926C19.4832 37.1926 19.5403 37.1805 19.5936 37.1569C19.5121 37.1769 19.4267 37.1678 19.3506 37.1311C19.9432 37.1054 20.5367 37.1486 21.1204 37.2601C21.2785 39.2511 20.7551 41.2358 19.6462 42.8501C18.0695 41.3623 16.2106 40.2508 14.1949 39.5907C13.9966 39.5531 13.7965 39.5273 13.5955 39.5133C13.7697 39.4316 13.956 39.3585 14.118 39.2553L14.1342 39.2424ZM14.7255 54.5031C14.5716 54.6837 13.5105 55.7372 13.5631 55.9092L13.4862 55.9006C13.6996 55.6203 13.8393 55.285 13.8912 54.9288L16.3738 52.0306L16.7788 52.0865C16.2604 52.7014 16.1632 52.8089 14.7093 54.516L14.7255 54.5031ZM25.1097 42.6136C24.7776 41.5558 23.757 39.5477 23.6719 39.681C23.5869 39.8143 24.6804 41.5515 25.0165 42.691C22.8295 45.1033 17.4592 51.291 16.9165 51.9145C15.9754 51.8407 15.0442 51.662 14.1382 51.3813C14.0257 50.2812 13.7877 49.1997 13.4295 48.1606C14.1909 47.5457 15.4545 46.2256 15.3937 46.1697C15.333 46.1138 14.1139 47.5371 13.3687 48.109C13.3638 48.1158 13.3611 48.1241 13.3611 48.1327C13.3611 48.1412 13.3638 48.1496 13.3687 48.1563C13.7807 49.4421 14.0126 50.7851 14.0572 52.1424C14.0775 53.0841 14.0572 54.9374 13.4214 55.6985C13.2283 55.8783 13.0025 56.0138 12.7579 56.0967C12.5133 56.1795 12.2552 56.2079 11.9998 56.1801C11.368 56.021 10.9347 55.2126 10.5945 54.688C9.36876 52.8648 8.62356 50.7272 8.43582 48.496C8.18067 44.7206 10.4163 41.7106 13.4335 39.6552C14.008 39.7001 14.5677 39.8699 15.0778 40.154C16.7825 40.884 18.3462 41.9408 19.6908 43.2715C20.3189 42.4319 20.7785 41.4647 21.0411 40.4293C21.3037 39.394 21.3638 38.3125 21.2176 37.2515C23.8218 37.6815 25.1583 38.8339 26.6082 40.9624C26.11 41.5171 25.6078 42.0632 25.1097 42.6136ZM41.0262 24.1623C40.8155 24.7949 40.7286 25.4665 40.771 26.136C40.6495 25.5426 40.4551 24.2139 41.0302 24.1623H41.0262ZM36.7939 42.9103C36.7453 43.0135 36.15 43.7488 36.1824 43.7058C35.0837 45.1767 33.7032 46.383 32.1324 47.2447C31.3779 47.7262 30.5802 48.1266 29.751 48.4401C29.4067 48.5605 35.8948 42.0374 36.4983 41.3537C36.8547 42.8114 36.8547 42.7727 36.7939 42.9103ZM38.0089 40.6958C37.9995 40.7468 37.9802 40.7951 37.9522 40.8377C37.8213 41.0149 37.6572 41.1613 37.4703 41.2677C37.4495 41.2862 37.4354 41.3117 37.4303 41.3399C37.4252 41.3681 37.4294 41.3973 37.4423 41.4226C37.4552 41.4479 37.4759 41.4677 37.5009 41.4786C37.5259 41.4896 37.5537 41.491 37.5796 41.4827C38.2843 41.1645 38.3289 41.1387 38.3694 41.1301C38.3694 41.4612 37.6404 41.6504 37.6566 41.8138C37.6728 41.9772 37.855 41.8826 38.0616 41.8439C38.098 41.8439 38.2722 41.8138 38.2803 41.8439C38.2884 41.874 38.1547 42.0202 38.1912 41.9772C37.855 42.2954 37.4338 42.2481 36.9762 42.2997L36.7089 41.1946C36.6846 41.0914 36.6117 41.1946 36.8466 40.9538C36.8493 40.9665 36.8545 40.9784 36.8619 40.9887C36.8692 40.999 36.8786 41.0075 36.8894 41.0136C36.9001 41.0197 36.912 41.0233 36.9242 41.0241C36.9364 41.0249 36.9486 41.023 36.96 41.0183C37.7578 40.7302 37.8955 40.6442 37.9968 40.6958H38.0089ZM46.2547 31.769C45.2787 32.9257 43.9138 34.1727 42.9256 35.1273C41.4393 36.5506 40.1878 38.7393 38.5881 39.0661C37.9744 39.1243 37.3561 39.0453 36.7729 38.8342C36.1897 38.6231 35.6547 38.2847 35.2023 37.8406C33.5013 36.0131 32.0757 33.8287 35.4129 30.3242C36.5509 29.1288 37.5958 27.8302 38.6772 26.5746C39.1632 26.0156 40.0258 24.7815 40.4632 24.4246C40.4008 24.7193 40.383 25.0227 40.4106 25.3233C40.6576 29.1546 45.3151 32.1388 46.8217 31.0681C46.6427 31.3144 46.4492 31.5485 46.2426 31.769H46.2547ZM44.7076 30.6725C45.2949 30.8703 45.6108 30.7284 46.2102 30.6725C46.4602 30.6488 46.7089 30.6115 46.9554 30.5607C46.5463 31.3089 45.6108 31.1197 44.6955 30.6725H44.7076ZM54.1927 18.3358C53.9416 18.3358 53.893 17.9359 53.6905 17.7682C53.6073 17.7163 53.5111 17.6926 53.4149 17.7003C53.3186 17.7079 53.2268 17.7467 53.1519 17.8112C52.8522 18.0434 52.6294 18.7486 51.6777 19.3764C51.2929 19.6301 50.9527 19.686 50.6652 19.2947C50.1063 18.5422 50.6125 17.536 50.5882 16.6674C50.5961 16.4417 50.5464 16.2179 50.4445 16.0196C50.3426 15.8213 50.1921 15.6559 50.0091 15.5408C49.5231 15.3 48.7941 15.5881 48.5106 15.0635C48.2271 14.5389 49.0006 14.1605 49.272 13.9068C50.5194 12.7415 51.5967 11.2236 51.787 9.46922C51.7787 9.34162 51.7973 9.21364 51.8414 9.09462C51.8855 8.9756 51.9541 8.86854 52.0422 8.78122C52.3864 8.54472 52.7874 8.98762 52.9696 9.38322C53.6583 10.9076 54.1122 12.5394 54.3142 14.2164C54.3669 14.6937 54.8812 18.31 54.1806 18.3358H54.1927Z" fill="black"/>
<path d="M39.9807 75.6247C39.586 75.4213 39.17 75.2683 38.7414 75.1689C38.4822 75.1001 38.0367 75.0872 37.9071 74.7991C37.7289 74.4035 37.8504 73.78 37.8382 73.35C37.741 69.3682 36.3721 65.6745 34.4119 62.3248C34.4243 62.0533 34.4555 61.7831 34.5051 61.5164C34.4646 60.0071 33.2091 59.2374 32.314 58.2785C31.0303 56.8492 29.8409 55.3277 28.7541 53.7248C28.5921 53.4926 26.9316 51.6522 26.9883 51.4071C26.5833 51.8371 19.5849 58.5752 13.7569 63.5933C13.7569 66.7882 12.0721 69.1188 13.036 70.6152C14.1781 72.3911 16.4704 71.0452 18.2241 70.4991C18.6777 77.5167 18.2241 77.2587 18.0175 79.9075C17.9082 81.2448 17.6125 82.5563 18.3982 83.7517C18.4195 83.79 18.4504 83.8212 18.4873 83.842C18.7366 83.8299 18.9819 83.7717 19.2123 83.67C19.1353 83.3819 19.0462 83.0938 18.9895 82.81C19.0381 83.0207 20.3787 83.111 20.5488 83.1283C20.8971 83.1627 23.1853 83.0809 22.6183 82.2381C22.3591 81.8554 20.9214 81.3781 20.8161 81.3265C22.4766 78.2262 23.6916 74.167 24.3234 70.7356C25.2326 70.6776 26.0995 70.3079 26.7939 69.6821C26.9802 69.4972 28.9161 67.0161 28.9485 67.0419C31.4757 68.8479 34.1568 71.2086 35.2705 74.2187C35.9631 76.0934 35.3232 76.4718 36.85 77.7618C36.9958 77.8822 37.6317 77.6801 37.5102 77.4307L37.3158 77.0308C37.4211 77.2372 38.7333 76.8072 38.9074 76.7427C39.2705 76.6159 39.6153 76.4365 39.9321 76.2095C40.2966 75.93 40.2034 75.7537 39.9807 75.6247ZM22.6872 76.0547C22.4389 76.4108 22.0898 76.673 21.6909 76.8029C20.8606 77.0996 19.2852 77.1383 18.6736 76.2998C18.6987 74.3445 18.6203 72.3892 18.4387 70.4432C20.4151 69.867 21.7881 70.9592 24.133 70.7614C23.7828 72.5602 23.2965 74.326 22.6791 76.0418L22.6872 76.0547ZM28.2276 62.2947C25.7976 62.9397 26.8101 64.5264 24.2424 66.1647C23.4324 66.6807 22.7196 67.0505 21.7678 66.8183C20.6905 66.556 19.7914 65.997 18.6615 66.3668C17.6773 66.6893 16.8268 67.4074 15.786 67.5407C14.6358 67.6826 13.927 66.9645 13.599 65.9454C13.6314 65.7777 13.6638 65.61 13.6921 65.4423C13.7286 65.7691 13.8298 66.0839 13.9889 66.3663C14.148 66.6486 14.3616 66.8921 14.6155 67.0806C15.5551 67.7299 16.7053 67.0505 17.653 66.5732C19.1839 65.7949 19.7631 65.9024 20.9902 66.3496C22.3227 66.8312 22.756 66.8355 23.8779 66.1389C24.3 65.8915 24.6999 65.6036 25.0726 65.2789C25.7125 64.6812 25.9515 63.8212 26.482 63.1289C27.3933 61.9206 28.9566 61.998 30.2202 61.6755C31.747 61.2842 32.6907 60.1705 32.3991 58.4806L32.6502 58.7386C32.7049 59.408 32.539 60.0767 32.1807 60.6304C31.8224 61.1842 31.294 61.5886 30.6859 61.7744C29.8881 62.0281 29.0416 62.0625 28.2276 62.2775V62.2947ZM36.2101 71.8106C35.6803 72.1501 35.0589 72.2924 34.4443 72.2148C32.968 70.1203 31.1439 68.3293 29.0619 66.9301C29.4613 66.4665 29.9342 66.0808 30.4591 65.7906C31.8928 65.0424 33.6465 64.7027 34.3512 62.5441C35.631 64.8145 36.9472 67.5923 37.3603 70.211C37.1611 70.8686 36.755 71.4333 36.2101 71.8106ZM37.0525 13.8681C38.5146 12.5437 40.5801 10.5614 42.6253 10.5786C40.5572 9.88814 38.3314 9.94866 36.2992 10.7506C35.0842 11.2838 31.8928 13.4166 32.8284 15.2699C33.687 17.2866 36.2506 14.6206 37.0525 13.8681ZM36.202 11.0301C38.1379 10.2561 39.9685 10.484 41.872 10.5614C39.9604 10.6689 38.3688 12.2556 36.9837 13.5026C36.2668 14.1476 33.8976 16.8996 32.9823 15.2226C32.0305 13.4424 35.0437 11.4945 36.202 11.0301ZM38.1987 18.2498V18.224C36.7974 18.8862 35.3637 19.9956 35.1045 21.707C35.0154 22.2961 35.0802 23.4657 35.9145 23.2722C36.5422 23.126 36.8298 22.2617 37.0768 21.707C37.5466 20.6492 37.98 19.557 38.3526 18.4605H38.3242C36.4977 21.7844 36.5382 22.8809 35.8375 23.0658C35.2341 23.2206 35.1207 22.3606 35.149 21.9306C35.3758 20.2106 37.0201 19.1829 38.1987 18.2498Z" fill="black"/>
</svg>
