<svg width="177" height="125" viewBox="0 0 177 125" fill="none" xmlns="http://www.w3.org/2000/svg">
<path d="M73.4094 29.3552C67.8091 25.5224 61.2854 23.2708 54.5377 22.8417C47.7901 22.4126 41.0727 23.8223 35.1058 26.9196C29.1389 30.0169 24.1474 34.685 20.6664 40.4236C17.1854 46.1622 15.3461 52.7548 15.3457 59.4949C15.3453 66.2349 17.1838 72.8682 20.6641 78.6836C24.1444 84.4991 29.1354 89.2775 35.1019 92.5066C41.0684 95.7357 47.7855 97.2937 54.5333 97.0137C61.281 96.7337 67.8049 94.6262 73.4057 90.9171L64.7373 78.011C61.4674 80.1765 57.6586 81.4069 53.7191 81.5704C49.7797 81.7339 45.858 80.8242 42.3746 78.939C38.8912 77.0538 35.9774 74.2641 33.9455 70.8688C31.9137 67.4736 30.8403 63.601 30.8405 59.666C30.8408 55.731 31.9146 51.8821 33.9469 48.5317C35.9792 45.1814 38.8933 42.4561 42.3769 40.6478C45.8606 38.8395 49.7823 38.0165 53.7217 38.267C57.6612 38.5175 61.4699 39.8321 64.7394 42.0698L73.4094 29.3552Z" fill="white"/>
<path d="M83.6598 42.1517C79.8988 48.0167 77.8315 54.8186 77.6913 61.7886C77.5512 68.7586 79.3439 75.6189 82.8668 81.5942C86.3896 87.5695 91.5023 92.4217 97.6269 95.6022C103.752 98.7828 110.644 100.165 117.525 99.5927C124.407 99.0204 131.003 96.5164 136.568 92.3636C142.133 88.2108 146.445 82.5748 149.018 76.0925C151.59 69.6103 152.32 62.5402 151.125 55.6812C149.929 48.8223 146.857 42.4479 142.254 37.2785L130.78 47.7121C133.467 50.7302 135.261 54.4517 135.959 58.4561C136.657 62.4605 136.231 66.5882 134.729 70.3727C133.227 74.1572 130.709 77.4476 127.46 79.8721C124.211 82.2966 120.36 83.7585 116.343 84.0926C112.325 84.4267 108.301 83.6198 104.726 81.7629C101.15 79.906 98.165 77.0732 96.1082 73.5847C94.0515 70.0962 93.0049 66.091 93.0867 62.0217C93.1685 57.9524 94.3755 53.9814 96.5712 50.5572L83.6598 42.1517Z" fill="white"/>
</svg>
