<svg width="200" height="150" viewBox="0 0 200 150" fill="none" xmlns="http://www.w3.org/2000/svg">
<path d="M81.7254 42.0819C100.93 55.2256 105.988 81.2945 93.0227 100.308C80.0573 119.322 53.9782 124.081 34.7734 110.937C15.5686 97.7938 10.5106 71.7248 23.476 52.7109C36.4414 33.6969 62.5206 28.9381 81.7254 42.0819ZM44.5435 96.6094C55.7557 104.283 70.9813 101.505 78.5508 90.404C86.1204 79.3032 83.1674 64.0835 71.9552 56.4099C60.743 48.7363 45.5174 51.5146 37.9479 62.6154C30.3784 73.7162 33.3313 88.9358 44.5435 96.6094Z" fill="#FBFBFB"/>
<path d="M87.1568 72.2785C91.0957 49.3424 112.681 33.8752 135.37 37.7316C158.058 41.5881 173.257 63.3077 169.319 86.2439C165.38 109.18 143.794 124.647 121.106 120.791C98.4173 116.934 83.2179 95.2146 87.1568 72.2785ZM152.222 83.3378C154.521 69.9472 145.647 57.2668 132.401 55.0153C119.156 52.7638 106.553 61.7939 104.254 75.1845C101.954 88.5752 110.828 101.256 124.074 103.507C137.32 105.759 149.922 96.7285 152.222 83.3378Z" fill="#FBFBFB"/>
<path d="M82.7254 33.0819C76.4144 28.7626 69.0629 26.2253 61.4589 25.7417C53.8549 25.2582 46.2851 26.8468 39.561 30.3371C32.8369 33.8275 27.212 39.088 23.2892 45.5548C19.3665 52.0216 17.2938 59.4509 17.2933 67.0463C17.2929 74.6416 19.3647 82.1167 23.2866 88.6701C27.2086 95.2236 32.8329 100.608 39.5566 104.247C46.2802 107.886 53.8498 109.642 61.4539 109.326C69.0579 109.011 76.4097 106.636 82.7212 102.456L72.9528 87.9122C69.268 90.3524 64.9758 91.739 60.5364 91.9232C56.097 92.1074 51.6777 91.0824 47.7523 88.9579C43.8268 86.8335 40.5432 83.6897 38.2535 79.8636C35.9638 76.0376 34.7542 71.6735 34.7545 67.2391C34.7547 62.8048 35.9648 58.4674 38.255 54.6919C40.5452 50.9164 43.8292 47.8452 47.7549 45.8075C51.6805 43.7697 56.0999 42.8423 60.5393 43.1246C64.9787 43.4069 69.2707 44.8883 72.9552 47.4099L82.7254 33.0819Z" fill="#FFBA08"/>
<path d="M94.2767 47.5011C90.0385 54.1104 87.7088 61.7754 87.5509 69.63C87.393 77.4845 89.4131 85.2154 93.383 91.949C97.353 98.6826 103.114 104.15 110.016 107.735C116.918 111.319 124.685 112.876 132.44 112.232C140.195 111.587 147.628 108.765 153.899 104.085C160.17 99.4052 165.03 93.054 167.929 85.7491C170.828 78.4443 171.65 70.477 170.303 62.7476C168.956 55.0182 165.493 47.8349 160.306 42.0095L147.376 53.7672C150.405 57.1682 152.426 61.362 153.213 65.8746C153.999 70.3872 153.519 75.0387 151.826 79.3034C150.134 83.5681 147.297 87.2761 143.635 90.0083C139.974 92.7405 135.635 94.3879 131.107 94.7644C126.58 95.141 122.045 94.2316 118.016 92.139C113.986 90.0465 110.623 86.8542 108.305 82.923C105.987 78.9918 104.808 74.4783 104.9 69.8927C104.992 65.307 106.352 60.832 108.827 56.9733L94.2767 47.5011Z" fill="#FFBA08"/>
</svg>
