<svg width="1847" height="1569" viewBox="0 0 1847 1569" fill="none" xmlns="http://www.w3.org/2000/svg">
<path d="M1564.61 239.65L1570.16 1183.82L1843.67 1182.21L1838.12 238.043L1564.61 239.65Z" fill="#FFBA08"/>
<path d="M742.211 562.963L745.887 1188.66L1019.4 1187.06L1015.72 561.356L742.211 562.963Z" fill="#FFBA08"/>
<path d="M1454.65 1293.16L1136.18 1295.03L1137.77 1564.79L1456.24 1562.92L1454.65 1293.16Z" fill="#FFBA08"/>
<path d="M1846.31 1149.08C1846.63 1203.12 1836.3 1256.7 1815.91 1306.75C1795.52 1356.8 1765.47 1402.35 1727.48 1440.79C1689.49 1479.23 1644.3 1509.81 1594.5 1530.78C1544.69 1551.76 1491.24 1562.71 1437.19 1563.03L1435.57 1287.02C1453.37 1286.91 1470.97 1283.3 1487.37 1276.4C1503.77 1269.49 1518.65 1259.42 1531.16 1246.76C1543.67 1234.1 1553.57 1219.11 1560.28 1202.62C1567 1186.14 1570.4 1168.5 1570.29 1150.7L1846.31 1149.08Z" fill="#FFBA08"/>
<path d="M745.708 1159.29C746.026 1213.34 756.985 1266.79 777.96 1316.6C798.934 1366.41 829.514 1411.59 867.953 1449.58C906.392 1487.57 951.937 1517.62 1001.99 1538.01C1052.04 1558.4 1105.62 1568.73 1159.66 1568.41L1158.04 1292.39C1140.24 1292.5 1122.6 1289.1 1106.12 1282.38C1089.64 1275.67 1074.64 1265.78 1061.98 1253.27C1049.32 1240.76 1039.25 1225.87 1032.34 1209.47C1025.44 1193.07 1021.83 1175.47 1021.72 1157.67L745.708 1159.29Z" fill="#FFBA08"/>
<path d="M824.453 1.70835C978.592 1.18926 1127.13 59.4684 1239.78 164.674C1352.44 269.879 1420.73 414.085 1430.74 567.902L1160.64 585.479C1155.11 500.421 1117.34 420.675 1055.04 362.498C992.747 304.321 910.608 272.088 825.368 272.376L824.453 1.70835Z" fill="#FFBA08"/>
<path d="M830.433 273.946L399.562 276.477L397.955 2.96746L828.826 0.435874L830.433 273.946Z" fill="#FFBA08"/>
<path d="M602.981 1099.59L404.405 1100.75L402.798 827.243L601.374 826.076L602.981 1099.59Z" fill="#FFBA08"/>
<path d="M1431.56 551.426L1433.12 817.443L1163.36 819.028L1161.79 553.011L1431.56 551.426Z" fill="#FFBA08"/>
<path d="M271.773 393.321L273.644 711.792L3.88137 713.377L2.0102 394.906L271.773 393.321Z" fill="#FFBA08"/>
<path d="M411.231 0C357.188 0.317532 303.736 11.2766 253.928 32.2514C204.12 53.2263 158.931 83.8062 120.942 122.245C82.9516 160.684 52.9048 206.229 32.5167 256.28C12.1286 306.331 1.79837 359.908 2.1159 413.952L278.131 412.33C278.027 394.533 281.429 376.891 288.142 360.409C294.856 343.927 304.751 328.929 317.261 316.271C329.771 303.613 344.652 293.543 361.053 286.636C377.455 279.729 395.057 276.12 412.853 276.016L411.231 0Z" fill="#FFBA08"/>
<path d="M413.952 1100.64C359.908 1100.96 306.331 1090.63 256.28 1070.24C206.229 1049.85 160.684 1019.8 122.245 981.812C83.8062 943.823 53.2263 898.634 32.2514 848.826C11.2766 799.018 0.317529 745.566 0 691.523L276.016 689.901C276.12 707.697 279.729 725.299 286.636 741.701C293.543 758.102 303.613 772.983 316.271 785.493C328.929 798.003 343.927 807.898 360.409 814.612C376.89 821.325 394.533 824.727 412.33 824.623L413.952 1100.64Z" fill="#FFBA08"/>
</svg>
