<svg width="177" height="125" viewBox="0 0 177 125" fill="none" xmlns="http://www.w3.org/2000/svg">
<path d="M72.5222 29.355C66.9219 25.5222 60.3982 23.2705 53.6505 22.8414C46.9028 22.4124 40.1855 23.822 34.2186 26.9193C28.2517 30.0166 23.2602 34.6848 19.7792 40.4233C16.2982 46.1619 14.4589 52.7546 14.4585 59.4946C14.4581 66.2346 16.2966 72.8679 19.7769 78.6834C23.2572 84.4989 28.2482 89.2773 34.2147 92.5064C40.1812 95.7355 46.8983 97.2935 53.6461 97.0135C60.3938 96.7335 66.9177 94.6259 72.5185 90.9168L63.8501 78.0108C60.5802 80.1762 56.7714 81.4067 52.8319 81.5701C48.8924 81.7336 44.9708 80.824 41.4874 78.9388C38.004 77.0535 35.0902 74.2638 33.0583 70.8686C31.0265 67.4734 29.9531 63.6007 29.9533 59.6658C29.9536 55.7308 31.0274 51.8818 33.0597 48.5315C35.092 45.1812 38.0061 42.4558 41.4897 40.6476C44.9733 38.8393 48.8951 38.0163 52.8345 38.2668C56.774 38.5173 60.5826 39.8319 63.8522 42.0695L72.5222 29.355Z" fill="#3B7AAF"/>
<path d="M82.773 42.1522C79.0121 48.0172 76.9448 54.819 76.8046 61.7891C76.6645 68.7591 78.4572 75.6194 81.98 81.5947C85.5029 87.57 90.6156 92.4221 96.7402 95.6027C102.865 98.7833 109.757 100.166 116.639 99.5932C123.52 99.0209 130.116 96.5169 135.681 92.3641C141.246 88.2113 145.559 82.5753 148.131 76.093C150.703 69.6108 151.433 62.5407 150.238 55.6817C149.043 48.8228 145.97 42.4484 141.367 37.279L129.893 47.7126C132.58 50.7307 134.374 54.4522 135.072 58.4566C135.77 62.461 135.344 66.5887 133.842 70.3732C132.34 74.1577 129.822 77.4481 126.573 79.8726C123.324 82.2971 119.474 83.759 115.456 84.0931C111.439 84.4272 107.415 83.6203 103.839 81.7634C100.263 79.9065 97.2783 77.0737 95.2215 73.5852C93.1648 70.0966 92.1182 66.0914 92.2 62.0222C92.2818 57.9529 93.4888 53.9818 95.6845 50.5577L82.773 42.1522Z" fill="#3B7AAF"/>
</svg>
